<svg xmlns="http://www.w3.org/2000/svg" xmlns:xlink="http://www.w3.org/1999/xlink" width="320" zoomAndPan="magnify" viewBox="0 0 240 129.000003" height="172" preserveAspectRatio="xMidYMid meet" version="1.0"><defs><g/><clipPath id="17f56457ad"><path d="M 38 21.875 L 41 21.875 L 41 35 L 38 35 Z M 38 21.875 " clip-rule="nonzero"/></clipPath><clipPath id="9dcd07f794"><path d="M 1.195312 59 L 14 59 L 14 62 L 1.195312 62 Z M 1.195312 59 " clip-rule="nonzero"/></clipPath><clipPath id="120e83bd19"><path d="M 65 59 L 78.597656 59 L 78.597656 62 L 65 62 Z M 65 59 " clip-rule="nonzero"/></clipPath><clipPath id="8ebcf22f4b"><path d="M 33 94 L 47 94 L 47 97.042969 L 33 97.042969 Z M 33 94 " clip-rule="nonzero"/></clipPath></defs><g fill="#000000" fill-opacity="1"><g transform="translate(75.28602, 98.187915)"><g><path d="M 1.765625 -4.171875 C 1.660156 -4.453125 1.578125 -4.738281 1.515625 -5.03125 C 1.453125 -5.320312 1.398438 -5.648438 1.359375 -6.015625 C 1.328125 -6.378906 1.300781 -6.804688 1.28125 -7.296875 C 1.257812 -7.785156 1.25 -8.378906 1.25 -9.078125 C 1.25 -9.773438 1.257812 -10.367188 1.28125 -10.859375 C 1.300781 -11.347656 1.328125 -11.773438 1.359375 -12.140625 C 1.398438 -12.503906 1.453125 -12.828125 1.515625 -13.109375 C 1.578125 -13.390625 1.660156 -13.6875 1.765625 -14 C 2.242188 -15.488281 3.039062 -16.601562 4.15625 -17.34375 C 5.269531 -18.082031 6.625 -18.453125 8.21875 -18.453125 C 9.769531 -18.453125 11.082031 -18.097656 12.15625 -17.390625 C 13.238281 -16.691406 14.035156 -15.703125 14.546875 -14.421875 C 14.640625 -14.253906 14.597656 -14.144531 14.421875 -14.09375 L 11.515625 -12.796875 C 11.347656 -12.703125 11.222656 -12.742188 11.140625 -12.921875 C 10.890625 -13.515625 10.535156 -14.003906 10.078125 -14.390625 C 9.628906 -14.785156 9.019531 -14.984375 8.25 -14.984375 C 7.539062 -14.984375 6.957031 -14.800781 6.5 -14.4375 C 6.050781 -14.082031 5.726562 -13.597656 5.53125 -12.984375 C 5.476562 -12.816406 5.429688 -12.640625 5.390625 -12.453125 C 5.359375 -12.265625 5.328125 -12.03125 5.296875 -11.75 C 5.273438 -11.46875 5.257812 -11.113281 5.25 -10.6875 C 5.238281 -10.257812 5.234375 -9.722656 5.234375 -9.078125 C 5.234375 -8.441406 5.238281 -7.910156 5.25 -7.484375 C 5.257812 -7.054688 5.273438 -6.695312 5.296875 -6.40625 C 5.328125 -6.125 5.359375 -5.890625 5.390625 -5.703125 C 5.429688 -5.515625 5.476562 -5.34375 5.53125 -5.1875 C 5.726562 -4.5625 6.050781 -4.066406 6.5 -3.703125 C 6.957031 -3.347656 7.539062 -3.171875 8.25 -3.171875 C 9.019531 -3.171875 9.628906 -3.367188 10.078125 -3.765625 C 10.535156 -4.160156 10.890625 -4.648438 11.140625 -5.234375 C 11.222656 -5.410156 11.347656 -5.457031 11.515625 -5.375 L 14.421875 -4.0625 C 14.597656 -4.007812 14.640625 -3.898438 14.546875 -3.734375 C 14.035156 -2.453125 13.238281 -1.457031 12.15625 -0.75 C 11.082031 -0.0507812 9.769531 0.296875 8.21875 0.296875 C 6.625 0.296875 5.269531 -0.0703125 4.15625 -0.8125 C 3.039062 -1.550781 2.242188 -2.671875 1.765625 -4.171875 Z M 1.765625 -4.171875 "/></g></g></g><g fill="#000000" fill-opacity="1"><g transform="translate(90.638136, 98.187915)"><g><path d="M 8.390625 0.296875 C 6.804688 0.296875 5.421875 -0.0664062 4.234375 -0.796875 C 3.046875 -1.523438 2.222656 -2.628906 1.765625 -4.109375 C 1.660156 -4.429688 1.578125 -4.742188 1.515625 -5.046875 C 1.453125 -5.347656 1.398438 -5.6875 1.359375 -6.0625 C 1.328125 -6.4375 1.300781 -6.863281 1.28125 -7.34375 C 1.257812 -7.820312 1.25 -8.398438 1.25 -9.078125 C 1.25 -9.753906 1.257812 -10.332031 1.28125 -10.8125 C 1.300781 -11.289062 1.328125 -11.71875 1.359375 -12.09375 C 1.398438 -12.46875 1.453125 -12.804688 1.515625 -13.109375 C 1.578125 -13.410156 1.660156 -13.722656 1.765625 -14.046875 C 2.222656 -15.503906 3.046875 -16.601562 4.234375 -17.34375 C 5.421875 -18.082031 6.804688 -18.453125 8.390625 -18.453125 C 9.972656 -18.453125 11.351562 -18.082031 12.53125 -17.34375 C 13.71875 -16.601562 14.539062 -15.503906 15 -14.046875 C 15.113281 -13.722656 15.203125 -13.410156 15.265625 -13.109375 C 15.328125 -12.804688 15.375 -12.46875 15.40625 -12.09375 C 15.445312 -11.71875 15.472656 -11.289062 15.484375 -10.8125 C 15.503906 -10.332031 15.515625 -9.753906 15.515625 -9.078125 C 15.515625 -8.398438 15.503906 -7.820312 15.484375 -7.34375 C 15.472656 -6.863281 15.445312 -6.4375 15.40625 -6.0625 C 15.375 -5.6875 15.328125 -5.347656 15.265625 -5.046875 C 15.203125 -4.742188 15.113281 -4.429688 15 -4.109375 C 14.539062 -2.628906 13.71875 -1.523438 12.53125 -0.796875 C 11.351562 -0.0664062 9.972656 0.296875 8.390625 0.296875 Z M 8.390625 -3.171875 C 9.128906 -3.171875 9.738281 -3.347656 10.21875 -3.703125 C 10.707031 -4.066406 11.046875 -4.5625 11.234375 -5.1875 C 11.296875 -5.34375 11.34375 -5.519531 11.375 -5.71875 C 11.40625 -5.925781 11.4375 -6.175781 11.46875 -6.46875 C 11.5 -6.769531 11.515625 -7.132812 11.515625 -7.5625 C 11.523438 -7.988281 11.53125 -8.492188 11.53125 -9.078125 C 11.53125 -9.660156 11.523438 -10.164062 11.515625 -10.59375 C 11.515625 -11.019531 11.5 -11.378906 11.46875 -11.671875 C 11.4375 -11.972656 11.40625 -12.222656 11.375 -12.421875 C 11.34375 -12.628906 11.296875 -12.816406 11.234375 -12.984375 C 11.046875 -13.597656 10.707031 -14.082031 10.21875 -14.4375 C 9.738281 -14.800781 9.128906 -14.984375 8.390625 -14.984375 C 7.640625 -14.984375 7.023438 -14.800781 6.546875 -14.4375 C 6.066406 -14.082031 5.726562 -13.597656 5.53125 -12.984375 C 5.476562 -12.816406 5.429688 -12.628906 5.390625 -12.421875 C 5.359375 -12.222656 5.328125 -11.972656 5.296875 -11.671875 C 5.273438 -11.378906 5.257812 -11.019531 5.25 -10.59375 C 5.238281 -10.164062 5.234375 -9.660156 5.234375 -9.078125 C 5.234375 -8.492188 5.238281 -7.988281 5.25 -7.5625 C 5.257812 -7.132812 5.273438 -6.769531 5.296875 -6.46875 C 5.328125 -6.175781 5.359375 -5.925781 5.390625 -5.71875 C 5.429688 -5.519531 5.476562 -5.34375 5.53125 -5.1875 C 5.726562 -4.5625 6.066406 -4.066406 6.546875 -3.703125 C 7.023438 -3.347656 7.640625 -3.171875 8.390625 -3.171875 Z M 8.390625 -3.171875 "/></g></g></g><g fill="#000000" fill-opacity="1"><g transform="translate(107.405311, 98.187915)"><g><path d="M 1.734375 -17.890625 C 1.734375 -18.066406 1.820312 -18.15625 2 -18.15625 L 5.203125 -18.15625 C 5.398438 -18.15625 5.550781 -18.066406 5.65625 -17.890625 L 12.0625 -6.46875 L 12.203125 -6.46875 L 12.203125 -17.890625 C 12.203125 -18.066406 12.289062 -18.15625 12.46875 -18.15625 L 15.484375 -18.15625 C 15.660156 -18.15625 15.75 -18.066406 15.75 -17.890625 L 15.75 -0.265625 C 15.75 -0.0859375 15.660156 0 15.484375 0 L 12.3125 0 C 12.113281 0 11.960938 -0.0859375 11.859375 -0.265625 L 5.421875 -11.671875 L 5.28125 -11.671875 L 5.28125 -0.265625 C 5.28125 -0.0859375 5.191406 0 5.015625 0 L 2 0 C 1.820312 0 1.734375 -0.0859375 1.734375 -0.265625 Z M 1.734375 -17.890625 "/></g></g></g><g fill="#000000" fill-opacity="1"><g transform="translate(124.893364, 98.187915)"><g><path d="M 1.734375 -17.890625 C 1.734375 -18.066406 1.820312 -18.15625 2 -18.15625 L 5.203125 -18.15625 C 5.398438 -18.15625 5.550781 -18.066406 5.65625 -17.890625 L 12.0625 -6.46875 L 12.203125 -6.46875 L 12.203125 -17.890625 C 12.203125 -18.066406 12.289062 -18.15625 12.46875 -18.15625 L 15.484375 -18.15625 C 15.660156 -18.15625 15.75 -18.066406 15.75 -17.890625 L 15.75 -0.265625 C 15.75 -0.0859375 15.660156 0 15.484375 0 L 12.3125 0 C 12.113281 0 11.960938 -0.0859375 11.859375 -0.265625 L 5.421875 -11.671875 L 5.28125 -11.671875 L 5.28125 -0.265625 C 5.28125 -0.0859375 5.191406 0 5.015625 0 L 2 0 C 1.820312 0 1.734375 -0.0859375 1.734375 -0.265625 Z M 1.734375 -17.890625 "/></g></g></g><g fill="#000000" fill-opacity="1"><g transform="translate(142.381417, 98.187915)"><g><path d="M 1.734375 -17.890625 C 1.734375 -18.066406 1.820312 -18.15625 2 -18.15625 L 13.640625 -18.15625 C 13.816406 -18.15625 13.90625 -18.066406 13.90625 -17.890625 L 13.90625 -15.03125 C 13.90625 -14.851562 13.816406 -14.765625 13.640625 -14.765625 L 5.828125 -14.765625 C 5.710938 -14.765625 5.65625 -14.710938 5.65625 -14.609375 L 5.65625 -11 C 5.65625 -10.894531 5.710938 -10.84375 5.828125 -10.84375 L 12.34375 -10.84375 C 12.519531 -10.84375 12.609375 -10.753906 12.609375 -10.578125 L 12.609375 -7.75 C 12.609375 -7.570312 12.519531 -7.484375 12.34375 -7.484375 L 5.828125 -7.484375 C 5.710938 -7.484375 5.65625 -7.425781 5.65625 -7.3125 L 5.65625 -3.546875 C 5.65625 -3.441406 5.710938 -3.390625 5.828125 -3.390625 L 13.640625 -3.390625 C 13.816406 -3.390625 13.90625 -3.300781 13.90625 -3.125 L 13.90625 -0.265625 C 13.90625 -0.0859375 13.816406 0 13.640625 0 L 2 0 C 1.820312 0 1.734375 -0.0859375 1.734375 -0.265625 Z M 1.734375 -17.890625 "/></g></g></g><g fill="#000000" fill-opacity="1"><g transform="translate(157.466531, 98.187915)"><g><path d="M 1.765625 -4.171875 C 1.660156 -4.453125 1.578125 -4.738281 1.515625 -5.03125 C 1.453125 -5.320312 1.398438 -5.648438 1.359375 -6.015625 C 1.328125 -6.378906 1.300781 -6.804688 1.28125 -7.296875 C 1.257812 -7.785156 1.25 -8.378906 1.25 -9.078125 C 1.25 -9.773438 1.257812 -10.367188 1.28125 -10.859375 C 1.300781 -11.347656 1.328125 -11.773438 1.359375 -12.140625 C 1.398438 -12.503906 1.453125 -12.828125 1.515625 -13.109375 C 1.578125 -13.390625 1.660156 -13.6875 1.765625 -14 C 2.242188 -15.488281 3.039062 -16.601562 4.15625 -17.34375 C 5.269531 -18.082031 6.625 -18.453125 8.21875 -18.453125 C 9.769531 -18.453125 11.082031 -18.097656 12.15625 -17.390625 C 13.238281 -16.691406 14.035156 -15.703125 14.546875 -14.421875 C 14.640625 -14.253906 14.597656 -14.144531 14.421875 -14.09375 L 11.515625 -12.796875 C 11.347656 -12.703125 11.222656 -12.742188 11.140625 -12.921875 C 10.890625 -13.515625 10.535156 -14.003906 10.078125 -14.390625 C 9.628906 -14.785156 9.019531 -14.984375 8.25 -14.984375 C 7.539062 -14.984375 6.957031 -14.800781 6.5 -14.4375 C 6.050781 -14.082031 5.726562 -13.597656 5.53125 -12.984375 C 5.476562 -12.816406 5.429688 -12.640625 5.390625 -12.453125 C 5.359375 -12.265625 5.328125 -12.03125 5.296875 -11.75 C 5.273438 -11.46875 5.257812 -11.113281 5.25 -10.6875 C 5.238281 -10.257812 5.234375 -9.722656 5.234375 -9.078125 C 5.234375 -8.441406 5.238281 -7.910156 5.25 -7.484375 C 5.257812 -7.054688 5.273438 -6.695312 5.296875 -6.40625 C 5.328125 -6.125 5.359375 -5.890625 5.390625 -5.703125 C 5.429688 -5.515625 5.476562 -5.34375 5.53125 -5.1875 C 5.726562 -4.5625 6.050781 -4.066406 6.5 -3.703125 C 6.957031 -3.347656 7.539062 -3.171875 8.25 -3.171875 C 9.019531 -3.171875 9.628906 -3.367188 10.078125 -3.765625 C 10.535156 -4.160156 10.890625 -4.648438 11.140625 -5.234375 C 11.222656 -5.410156 11.347656 -5.457031 11.515625 -5.375 L 14.421875 -4.0625 C 14.597656 -4.007812 14.640625 -3.898438 14.546875 -3.734375 C 14.035156 -2.453125 13.238281 -1.457031 12.15625 -0.75 C 11.082031 -0.0507812 9.769531 0.296875 8.21875 0.296875 C 6.625 0.296875 5.269531 -0.0703125 4.15625 -0.8125 C 3.039062 -1.550781 2.242188 -2.671875 1.765625 -4.171875 Z M 1.765625 -4.171875 "/></g></g></g><g fill="#000000" fill-opacity="1"><g transform="translate(172.818646, 98.187915)"><g><path d="M 5.734375 0 C 5.554688 0 5.46875 -0.0859375 5.46875 -0.265625 L 5.46875 -14.5 C 5.46875 -14.601562 5.414062 -14.65625 5.3125 -14.65625 L 0.71875 -14.65625 C 0.539062 -14.65625 0.453125 -14.742188 0.453125 -14.921875 L 0.453125 -17.890625 C 0.453125 -18.066406 0.539062 -18.15625 0.71875 -18.15625 L 14.15625 -18.15625 C 14.332031 -18.15625 14.421875 -18.066406 14.421875 -17.890625 L 14.421875 -14.921875 C 14.421875 -14.742188 14.332031 -14.65625 14.15625 -14.65625 L 9.5625 -14.65625 C 9.457031 -14.65625 9.40625 -14.601562 9.40625 -14.5 L 9.40625 -0.265625 C 9.40625 -0.0859375 9.3125 0 9.125 0 Z M 5.734375 0 "/></g></g></g><path fill="#f68712" d="M 22.28125 41.652344 L 13.1875 32.566406 L 11.882812 33.867188 L 20.976562 42.945312 C 21.394531 42.5 21.832031 42.066406 22.28125 41.652344 " fill-opacity="1" fill-rule="nonzero"/><path fill="#f68712" d="M 66.613281 32.566406 L 57.515625 41.652344 C 57.96875 42.066406 58.402344 42.5 58.824219 42.945312 L 67.917969 33.867188 L 66.613281 32.566406 " fill-opacity="1" fill-rule="nonzero"/><g clip-path="url(#17f56457ad)"><path fill="#f68712" d="M 39.898438 34.757812 C 40.207031 34.757812 40.515625 34.765625 40.820312 34.777344 L 40.820312 21.898438 L 38.980469 21.898438 L 38.980469 34.777344 C 39.285156 34.765625 39.589844 34.757812 39.898438 34.757812 " fill-opacity="1" fill-rule="nonzero"/></g><g clip-path="url(#9dcd07f794)"><path fill="#f68712" d="M 1.199219 59.625 L 1.199219 61.460938 L 13.925781 61.460938 C 13.917969 61.210938 13.914062 60.960938 13.914062 60.710938 C 13.914062 60.34375 13.921875 59.984375 13.9375 59.625 L 1.199219 59.625 " fill-opacity="1" fill-rule="nonzero"/></g><path fill="#f68712" d="M 20.808594 78.304688 L 11.882812 87.21875 L 13.1875 88.519531 L 22.105469 79.613281 C 21.65625 79.191406 21.226562 78.757812 20.808594 78.304688 " fill-opacity="1" fill-rule="nonzero"/><g clip-path="url(#120e83bd19)"><path fill="#f68712" d="M 65.875 61.460938 L 78.601562 61.460938 L 78.601562 59.625 L 65.863281 59.625 C 65.878906 59.984375 65.886719 60.34375 65.886719 60.710938 C 65.886719 60.960938 65.882812 61.210938 65.875 61.460938 " fill-opacity="1" fill-rule="nonzero"/></g><path fill="#f68712" d="M 57.695312 79.613281 L 66.613281 88.519531 L 67.917969 87.21875 L 58.988281 78.304688 C 58.574219 78.757812 58.144531 79.191406 57.695312 79.613281 " fill-opacity="1" fill-rule="nonzero"/><path fill="#f68712" d="M 48.070312 36.074219 C 48.65625 36.269531 49.230469 36.484375 49.796875 36.714844 L 52.523438 29.433594 C 51.957031 29.199219 51.382812 28.980469 50.800781 28.777344 L 48.070312 36.074219 " fill-opacity="1" fill-rule="nonzero"/><path fill="#f68712" d="M 25.128906 30.414062 L 28.351562 37.46875 C 28.898438 37.195312 29.457031 36.941406 30.027344 36.707031 L 26.796875 29.636719 C 26.234375 29.882812 25.679688 30.140625 25.128906 30.414062 " fill-opacity="1" fill-rule="nonzero"/><path fill="#f68712" d="M 8.5 49.808594 L 15.296875 52.347656 C 15.496094 51.761719 15.714844 51.191406 15.953125 50.628906 L 9.113281 48.074219 C 8.890625 48.644531 8.6875 49.222656 8.5 49.808594 " fill-opacity="1" fill-rule="nonzero"/><path fill="#f68712" d="M 9.785156 73.246094 C 10.035156 73.804688 10.300781 74.359375 10.582031 74.902344 L 16.589844 72.167969 C 16.320312 71.617188 16.070312 71.058594 15.835938 70.488281 L 9.785156 73.246094 " fill-opacity="1" fill-rule="nonzero"/><path fill="#f68712" d="M 63.074219 48.980469 C 63.351562 49.523438 63.613281 50.082031 63.851562 50.648438 L 70.507812 47.613281 C 70.28125 47.042969 70.035156 46.484375 69.777344 45.929688 L 63.074219 48.980469 " fill-opacity="1" fill-rule="nonzero"/><path fill="#f68712" d="M 63.957031 70.5 L 70.195312 72.828125 C 70.4375 72.265625 70.667969 71.695312 70.875 71.117188 L 64.59375 68.773438 C 64.402344 69.359375 64.191406 69.933594 63.957031 70.5 " fill-opacity="1" fill-rule="nonzero"/><path fill="#393536" d="M 48.519531 92.761719 L 31.28125 92.761719 L 31.28125 89.257812 L 48.519531 89.257812 L 48.519531 92.761719 " fill-opacity="1" fill-rule="nonzero"/><g clip-path="url(#8ebcf22f4b)"><path fill="#393536" d="M 46.269531 97.03125 L 33.53125 97.03125 L 33.53125 94.441406 L 46.269531 94.441406 L 46.269531 97.03125 " fill-opacity="1" fill-rule="nonzero"/></g><path fill="#f68712" d="M 53.84375 57.769531 L 51.832031 60.257812 C 51.714844 60.40625 51.503906 60.425781 51.355469 60.308594 C 51.210938 60.191406 51.1875 59.976562 51.304688 59.832031 L 53.273438 57.398438 L 52.144531 56.65625 L 49.304688 60.164062 L 49.027344 59.945312 C 48.960938 60.039062 48.890625 60.136719 48.8125 60.230469 C 47.25 62.164062 44.410156 62.46875 42.472656 60.90625 C 40.535156 59.339844 40.230469 56.507812 41.796875 54.570312 C 41.871094 54.476562 41.949219 54.390625 42.03125 54.304688 L 41.757812 54.082031 L 44.597656 50.570312 L 40.648438 46.691406 C 44.347656 48.691406 52.519531 48.480469 52.519531 48.480469 C 52.519531 48.480469 54.03125 56.5 56.769531 59.691406 Z M 39.898438 38.242188 C 27.730469 38.242188 17.867188 48.089844 17.867188 60.242188 C 17.867188 68.660156 22.601562 75.972656 29.554688 79.671875 C 29.101562 67.480469 35.199219 66.542969 34.433594 56.355469 C 33.875 48.976562 35.953125 44.910156 35.953125 44.910156 C 35 64.585938 48.203125 67.449219 58.027344 65.332031 C 58.027344 65.332031 56.964844 66.765625 48.601562 68.449219 C 39.65625 70.246094 33.53125 78.0625 39.152344 87.574219 L 49.285156 87.574219 L 49.285156 80.152344 C 56.761719 76.632812 61.933594 69.042969 61.933594 60.242188 C 61.933594 48.089844 52.070312 38.242188 39.898438 38.242188 " fill-opacity="1" fill-rule="nonzero"/><g fill="#000000" fill-opacity="1"><g transform="translate(80.756801, 71.130359)"><g><path d="M 4.71875 -2.34375 L 4.71875 -31.84375 L -0.28125 -31.84375 L -2.421875 -34.96875 L -2.421875 -35.53125 L 5.546875 -35.53125 C 4.617188 -36.476562 3.878906 -37.601562 3.328125 -38.90625 C 2.785156 -40.21875 2.515625 -41.523438 2.515625 -42.828125 C 2.515625 -45.285156 3.53125 -47.28125 5.5625 -48.8125 C 7.59375 -50.34375 10.207031 -51.109375 13.40625 -51.109375 C 17.28125 -51.109375 21.070312 -50.253906 24.78125 -48.546875 C 28.488281 -46.835938 31.8125 -44.769531 34.75 -42.34375 C 37.6875 -39.914062 40.28125 -37.421875 42.53125 -34.859375 L 40.484375 -33.609375 C 36.992188 -37.429688 33.050781 -40.625 28.65625 -43.1875 C 24.269531 -45.757812 19.800781 -47.046875 15.25 -47.046875 C 12.707031 -47.046875 10.609375 -46.421875 8.953125 -45.171875 C 7.296875 -43.929688 6.46875 -42.296875 6.46875 -40.265625 C 6.46875 -38.648438 6.894531 -37.070312 7.75 -35.53125 L 13.1875 -35.53125 L 15.34375 -32.40625 L 15.34375 -31.84375 L 8.703125 -31.84375 L 8.703125 0.25 L 8.203125 0.25 Z M 4.71875 -2.34375 "/></g></g></g><g fill="#000000" fill-opacity="1"><g transform="translate(94.223448, 71.130359)"><g><path d="M 21.421875 -1.84375 L 17.84375 0.25 L 13.109375 -5.796875 C 11.398438 -8.066406 10.070312 -9.757812 9.125 -10.875 C 8.375 -10.664062 7.476562 -10.5625 6.4375 -10.5625 C 5.195312 -10.5625 4.109375 -10.957031 3.171875 -11.75 C 2.242188 -12.539062 1.78125 -13.492188 1.78125 -14.609375 C 1.78125 -15.617188 2.117188 -16.40625 2.796875 -16.96875 C 3.472656 -17.53125 4.304688 -17.8125 5.296875 -17.8125 C 5.984375 -17.8125 6.628906 -17.660156 7.234375 -17.359375 C 7.835938 -17.066406 8.625 -16.523438 9.59375 -15.734375 C 11.132812 -16.285156 12.5 -17.507812 13.6875 -19.40625 C 10.320312 -20.59375 7.75 -22.082031 5.96875 -23.875 C 4.1875 -25.675781 3.296875 -27.679688 3.296875 -29.890625 C 3.296875 -31.734375 3.878906 -33.21875 5.046875 -34.34375 C 6.210938 -35.46875 7.738281 -36.03125 9.625 -36.03125 C 12.257812 -36.03125 14.578125 -34.890625 16.578125 -32.609375 C 18.578125 -30.335938 19.578125 -27.820312 19.578125 -25.0625 C 19.578125 -19.15625 16.9375 -14.734375 11.65625 -11.796875 C 16.875 -6.390625 20.128906 -3.070312 21.421875 -1.84375 Z M 37.390625 -31.84375 L 30.78125 -31.84375 L 30.78125 0.28125 L 30.25 0.28125 L 26.796875 -2.3125 L 26.796875 -31.84375 L 22.984375 -31.84375 L 20.828125 -34.96875 L 20.828125 -35.53125 L 35.25 -35.53125 L 37.390625 -32.40625 Z M 14.703125 -21.390625 C 15.472656 -23.242188 15.859375 -25.148438 15.859375 -27.109375 C 15.859375 -28.984375 15.484375 -30.378906 14.734375 -31.296875 C 13.984375 -32.222656 13.015625 -32.6875 11.828125 -32.6875 C 10.523438 -32.6875 9.445312 -32.257812 8.59375 -31.40625 C 7.75 -30.5625 7.328125 -29.5 7.328125 -28.21875 C 7.328125 -25.59375 9.785156 -23.316406 14.703125 -21.390625 Z M 14.703125 -21.390625 "/></g></g></g><g fill="#000000" fill-opacity="1"><g transform="translate(129.744168, 71.130359)"><g><path d="M 40.875 -31.84375 L 34.265625 -31.84375 L 34.265625 0.28125 L 33.734375 0.28125 L 30.28125 -2.3125 L 30.28125 -16.453125 C 28.664062 -15.953125 26.898438 -15.703125 24.984375 -15.703125 C 21.398438 -15.703125 18.046875 -16.484375 14.921875 -18.046875 C 13.359375 -17.023438 12.117188 -16.144531 11.203125 -15.40625 C 10.296875 -14.675781 9.519531 -13.828125 8.875 -12.859375 C 8.238281 -11.890625 7.921875 -10.816406 7.921875 -9.640625 C 7.921875 -8.234375 8.359375 -7.085938 9.234375 -6.203125 C 10.109375 -5.316406 11.25 -4.875 12.65625 -4.875 C 14.019531 -4.875 15.085938 -5.097656 15.859375 -5.546875 C 15.597656 -6.210938 15.46875 -6.957031 15.46875 -7.78125 C 15.46875 -8.632812 15.753906 -9.359375 16.328125 -9.953125 C 16.910156 -10.546875 17.648438 -10.84375 18.546875 -10.84375 C 19.804688 -10.84375 20.925781 -10.351562 21.90625 -9.375 C 22.882812 -8.40625 23.375 -7.269531 23.375 -5.96875 C 23.375 -5.207031 23.113281 -4.460938 22.59375 -3.734375 C 22.082031 -3.015625 21.253906 -2.429688 20.109375 -1.984375 C 21.535156 0.285156 23.820312 2.832031 26.96875 5.65625 L 22.453125 7.53125 C 20.472656 4.613281 18.875 1.640625 17.65625 -1.390625 C 16.8125 -1.222656 16.019531 -1.140625 15.28125 -1.140625 C 12.457031 -1.140625 9.875 -2.300781 7.53125 -4.625 C 6.132812 -5.988281 5.140625 -7.195312 4.546875 -8.25 C 3.953125 -9.3125 3.65625 -10.425781 3.65625 -11.59375 C 3.65625 -12.957031 3.972656 -14.171875 4.609375 -15.234375 C 5.253906 -16.304688 6.0625 -17.238281 7.03125 -18.03125 C 8 -18.820312 9.222656 -19.695312 10.703125 -20.65625 C 7.148438 -23.332031 5.375 -26.160156 5.375 -29.140625 C 5.375 -31.054688 5.972656 -32.597656 7.171875 -33.765625 C 8.378906 -34.941406 9.957031 -35.53125 11.90625 -35.53125 C 13.519531 -35.53125 15.070312 -34.960938 16.5625 -33.828125 C 18.050781 -32.691406 19.234375 -31.40625 20.109375 -29.96875 C 20.992188 -28.539062 21.4375 -27.078125 21.4375 -25.578125 C 21.4375 -24.492188 21.109375 -23.5 20.453125 -22.59375 C 19.796875 -21.695312 18.863281 -20.789062 17.65625 -19.875 C 19.125 -19.5625 20.59375 -19.40625 22.0625 -19.40625 C 25.144531 -19.40625 27.882812 -19.972656 30.28125 -21.109375 L 30.28125 -31.84375 L 26.09375 -31.84375 L 23.953125 -34.96875 L 23.953125 -35.53125 L 38.734375 -35.53125 L 40.875 -32.40625 Z M 12.796875 -22.03125 C 14.265625 -23 15.390625 -23.945312 16.171875 -24.875 C 16.953125 -25.800781 17.34375 -26.851562 17.34375 -28.03125 C 17.34375 -29.050781 17.035156 -29.910156 16.421875 -30.609375 C 15.804688 -31.316406 14.972656 -31.671875 13.921875 -31.671875 C 12.785156 -31.671875 11.84375 -31.289062 11.09375 -30.53125 C 10.351562 -29.769531 9.984375 -28.804688 9.984375 -27.640625 C 9.984375 -25.347656 10.921875 -23.476562 12.796875 -22.03125 Z M 12.796875 -22.03125 "/></g></g></g><g fill="#000000" fill-opacity="1"><g transform="translate(168.750046, 71.130359)"><g><path d="M 15.34375 -31.84375 L 8.734375 -31.84375 L 8.734375 0.28125 L 8.203125 0.28125 L 4.734375 -2.3125 L 4.734375 -31.84375 L -0.28125 -31.84375 L -2.421875 -34.96875 L -2.421875 -35.53125 L 13.1875 -35.53125 L 15.34375 -32.40625 Z M 15.34375 -31.84375 "/></g></g></g></svg>