<svg xmlns="http://www.w3.org/2000/svg" xmlns:xlink="http://www.w3.org/1999/xlink" width="500" zoomAndPan="magnify" viewBox="0 0 375 374.999991" height="500" preserveAspectRatio="xMidYMid meet" version="1.0"><defs><g/><clipPath id="dcabe70d16"><path d="M 114 149.546875 L 116 149.546875 L 116 163 L 114 163 Z M 114 149.546875 " clip-rule="nonzero"/></clipPath><clipPath id="94528ef92f"><path d="M 76.027344 187 L 89 187 L 89 190 L 76.027344 190 Z M 76.027344 187 " clip-rule="nonzero"/></clipPath><clipPath id="b63256fe6c"><path d="M 141 187 L 154.027344 187 L 154.027344 190 L 141 190 Z M 141 187 " clip-rule="nonzero"/></clipPath><clipPath id="30a80cc918"><path d="M 108 222 L 122 222 L 122 225.296875 L 108 225.296875 Z M 108 222 " clip-rule="nonzero"/></clipPath></defs><g fill="#ffffff" fill-opacity="1"><g transform="translate(150.689404, 226.449027)"><g><path d="M 1.78125 -4.203125 C 1.664062 -4.484375 1.578125 -4.769531 1.515625 -5.0625 C 1.453125 -5.363281 1.398438 -5.695312 1.359375 -6.0625 C 1.328125 -6.4375 1.300781 -6.867188 1.28125 -7.359375 C 1.269531 -7.847656 1.265625 -8.441406 1.265625 -9.140625 C 1.265625 -9.847656 1.269531 -10.445312 1.28125 -10.9375 C 1.300781 -11.425781 1.328125 -11.851562 1.359375 -12.21875 C 1.398438 -12.59375 1.453125 -12.921875 1.515625 -13.203125 C 1.578125 -13.492188 1.664062 -13.789062 1.78125 -14.09375 C 2.257812 -15.601562 3.054688 -16.726562 4.171875 -17.46875 C 5.296875 -18.21875 6.664062 -18.59375 8.28125 -18.59375 C 9.84375 -18.59375 11.164062 -18.238281 12.25 -17.53125 C 13.34375 -16.820312 14.144531 -15.820312 14.65625 -14.53125 C 14.75 -14.363281 14.707031 -14.253906 14.53125 -14.203125 L 11.59375 -12.890625 C 11.4375 -12.796875 11.3125 -12.835938 11.21875 -13.015625 C 10.96875 -13.609375 10.613281 -14.101562 10.15625 -14.5 C 9.695312 -14.894531 9.082031 -15.09375 8.3125 -15.09375 C 7.59375 -15.09375 7.003906 -14.910156 6.546875 -14.546875 C 6.085938 -14.191406 5.757812 -13.703125 5.5625 -13.078125 C 5.507812 -12.910156 5.460938 -12.734375 5.421875 -12.546875 C 5.390625 -12.359375 5.359375 -12.117188 5.328125 -11.828125 C 5.304688 -11.546875 5.289062 -11.1875 5.28125 -10.75 C 5.28125 -10.320312 5.28125 -9.785156 5.28125 -9.140625 C 5.28125 -8.492188 5.28125 -7.957031 5.28125 -7.53125 C 5.289062 -7.101562 5.304688 -6.742188 5.328125 -6.453125 C 5.359375 -6.171875 5.390625 -5.9375 5.421875 -5.75 C 5.460938 -5.5625 5.507812 -5.382812 5.5625 -5.21875 C 5.757812 -4.59375 6.085938 -4.097656 6.546875 -3.734375 C 7.003906 -3.378906 7.59375 -3.203125 8.3125 -3.203125 C 9.082031 -3.203125 9.695312 -3.398438 10.15625 -3.796875 C 10.613281 -4.191406 10.96875 -4.6875 11.21875 -5.28125 C 11.3125 -5.457031 11.4375 -5.5 11.59375 -5.40625 L 14.53125 -4.09375 C 14.707031 -4.039062 14.75 -3.929688 14.65625 -3.765625 C 14.144531 -2.472656 13.34375 -1.472656 12.25 -0.765625 C 11.164062 -0.0546875 9.84375 0.296875 8.28125 0.296875 C 6.664062 0.296875 5.296875 -0.0703125 4.171875 -0.8125 C 3.054688 -1.5625 2.257812 -2.691406 1.78125 -4.203125 Z M 1.78125 -4.203125 "/></g></g></g><g fill="#ffffff" fill-opacity="1"><g transform="translate(166.160527, 226.449027)"><g><path d="M 8.453125 0.296875 C 6.847656 0.296875 5.445312 -0.0664062 4.25 -0.796875 C 3.0625 -1.535156 2.238281 -2.648438 1.78125 -4.140625 C 1.664062 -4.460938 1.578125 -4.773438 1.515625 -5.078125 C 1.453125 -5.390625 1.398438 -5.734375 1.359375 -6.109375 C 1.328125 -6.484375 1.300781 -6.910156 1.28125 -7.390625 C 1.269531 -7.878906 1.265625 -8.460938 1.265625 -9.140625 C 1.265625 -9.828125 1.269531 -10.410156 1.28125 -10.890625 C 1.300781 -11.378906 1.328125 -11.8125 1.359375 -12.1875 C 1.398438 -12.5625 1.453125 -12.898438 1.515625 -13.203125 C 1.578125 -13.515625 1.664062 -13.832031 1.78125 -14.15625 C 2.238281 -15.625 3.0625 -16.726562 4.25 -17.46875 C 5.445312 -18.21875 6.847656 -18.59375 8.453125 -18.59375 C 10.046875 -18.59375 11.4375 -18.21875 12.625 -17.46875 C 13.820312 -16.726562 14.65625 -15.625 15.125 -14.15625 C 15.226562 -13.832031 15.3125 -13.515625 15.375 -13.203125 C 15.4375 -12.898438 15.484375 -12.5625 15.515625 -12.1875 C 15.554688 -11.8125 15.582031 -11.378906 15.59375 -10.890625 C 15.613281 -10.410156 15.625 -9.828125 15.625 -9.140625 C 15.625 -8.460938 15.613281 -7.878906 15.59375 -7.390625 C 15.582031 -6.910156 15.554688 -6.484375 15.515625 -6.109375 C 15.484375 -5.734375 15.4375 -5.390625 15.375 -5.078125 C 15.3125 -4.773438 15.226562 -4.460938 15.125 -4.140625 C 14.65625 -2.648438 13.820312 -1.535156 12.625 -0.796875 C 11.4375 -0.0664062 10.046875 0.296875 8.453125 0.296875 Z M 8.453125 -3.203125 C 9.203125 -3.203125 9.816406 -3.378906 10.296875 -3.734375 C 10.785156 -4.097656 11.128906 -4.59375 11.328125 -5.21875 C 11.378906 -5.382812 11.421875 -5.566406 11.453125 -5.765625 C 11.492188 -5.972656 11.523438 -6.222656 11.546875 -6.515625 C 11.578125 -6.816406 11.597656 -7.179688 11.609375 -7.609375 C 11.617188 -8.046875 11.625 -8.554688 11.625 -9.140625 C 11.625 -9.734375 11.617188 -10.242188 11.609375 -10.671875 C 11.597656 -11.109375 11.578125 -11.472656 11.546875 -11.765625 C 11.523438 -12.066406 11.492188 -12.316406 11.453125 -12.515625 C 11.421875 -12.722656 11.378906 -12.910156 11.328125 -13.078125 C 11.128906 -13.703125 10.785156 -14.191406 10.296875 -14.546875 C 9.816406 -14.910156 9.203125 -15.09375 8.453125 -15.09375 C 7.691406 -15.09375 7.066406 -14.910156 6.578125 -14.546875 C 6.097656 -14.191406 5.757812 -13.703125 5.5625 -13.078125 C 5.507812 -12.910156 5.460938 -12.722656 5.421875 -12.515625 C 5.390625 -12.316406 5.359375 -12.066406 5.328125 -11.765625 C 5.304688 -11.472656 5.289062 -11.109375 5.28125 -10.671875 C 5.28125 -10.242188 5.28125 -9.734375 5.28125 -9.140625 C 5.28125 -8.554688 5.28125 -8.046875 5.28125 -7.609375 C 5.289062 -7.179688 5.304688 -6.816406 5.328125 -6.515625 C 5.359375 -6.222656 5.390625 -5.972656 5.421875 -5.765625 C 5.460938 -5.566406 5.507812 -5.382812 5.5625 -5.21875 C 5.757812 -4.59375 6.097656 -4.097656 6.578125 -3.734375 C 7.066406 -3.378906 7.691406 -3.203125 8.453125 -3.203125 Z M 8.453125 -3.203125 "/></g></g></g><g fill="#ffffff" fill-opacity="1"><g transform="translate(183.05768, 226.449027)"><g><path d="M 1.75 -18.03125 C 1.75 -18.207031 1.835938 -18.296875 2.015625 -18.296875 L 5.25 -18.296875 C 5.445312 -18.296875 5.597656 -18.207031 5.703125 -18.03125 L 12.15625 -6.515625 L 12.296875 -6.515625 L 12.296875 -18.03125 C 12.296875 -18.207031 12.382812 -18.296875 12.5625 -18.296875 L 15.609375 -18.296875 C 15.785156 -18.296875 15.875 -18.207031 15.875 -18.03125 L 15.875 -0.265625 C 15.875 -0.0859375 15.785156 0 15.609375 0 L 12.40625 0 C 12.207031 0 12.054688 -0.0859375 11.953125 -0.265625 L 5.46875 -11.765625 L 5.328125 -11.765625 L 5.328125 -0.265625 C 5.328125 -0.0859375 5.238281 0 5.0625 0 L 2.015625 0 C 1.835938 0 1.75 -0.0859375 1.75 -0.265625 Z M 1.75 -18.03125 "/></g></g></g><g fill="#ffffff" fill-opacity="1"><g transform="translate(200.681298, 226.449027)"><g><path d="M 1.75 -18.03125 C 1.75 -18.207031 1.835938 -18.296875 2.015625 -18.296875 L 5.25 -18.296875 C 5.445312 -18.296875 5.597656 -18.207031 5.703125 -18.03125 L 12.15625 -6.515625 L 12.296875 -6.515625 L 12.296875 -18.03125 C 12.296875 -18.207031 12.382812 -18.296875 12.5625 -18.296875 L 15.609375 -18.296875 C 15.785156 -18.296875 15.875 -18.207031 15.875 -18.03125 L 15.875 -0.265625 C 15.875 -0.0859375 15.785156 0 15.609375 0 L 12.40625 0 C 12.207031 0 12.054688 -0.0859375 11.953125 -0.265625 L 5.46875 -11.765625 L 5.328125 -11.765625 L 5.328125 -0.265625 C 5.328125 -0.0859375 5.238281 0 5.0625 0 L 2.015625 0 C 1.835938 0 1.75 -0.0859375 1.75 -0.265625 Z M 1.75 -18.03125 "/></g></g></g><g fill="#ffffff" fill-opacity="1"><g transform="translate(218.304917, 226.449027)"><g><path d="M 1.75 -18.03125 C 1.75 -18.207031 1.835938 -18.296875 2.015625 -18.296875 L 13.75 -18.296875 C 13.925781 -18.296875 14.015625 -18.207031 14.015625 -18.03125 L 14.015625 -15.140625 C 14.015625 -14.960938 13.925781 -14.875 13.75 -14.875 L 5.859375 -14.875 C 5.753906 -14.875 5.703125 -14.820312 5.703125 -14.71875 L 5.703125 -11.078125 C 5.703125 -10.972656 5.753906 -10.921875 5.859375 -10.921875 L 12.4375 -10.921875 C 12.613281 -10.921875 12.703125 -10.832031 12.703125 -10.65625 L 12.703125 -7.796875 C 12.703125 -7.617188 12.613281 -7.53125 12.4375 -7.53125 L 5.859375 -7.53125 C 5.753906 -7.53125 5.703125 -7.476562 5.703125 -7.375 L 5.703125 -3.578125 C 5.703125 -3.472656 5.753906 -3.421875 5.859375 -3.421875 L 13.75 -3.421875 C 13.925781 -3.421875 14.015625 -3.328125 14.015625 -3.140625 L 14.015625 -0.265625 C 14.015625 -0.0859375 13.925781 0 13.75 0 L 2.015625 0 C 1.835938 0 1.75 -0.0859375 1.75 -0.265625 Z M 1.75 -18.03125 "/></g></g></g><g fill="#ffffff" fill-opacity="1"><g transform="translate(233.506968, 226.449027)"><g><path d="M 1.78125 -4.203125 C 1.664062 -4.484375 1.578125 -4.769531 1.515625 -5.0625 C 1.453125 -5.363281 1.398438 -5.695312 1.359375 -6.0625 C 1.328125 -6.4375 1.300781 -6.867188 1.28125 -7.359375 C 1.269531 -7.847656 1.265625 -8.441406 1.265625 -9.140625 C 1.265625 -9.847656 1.269531 -10.445312 1.28125 -10.9375 C 1.300781 -11.425781 1.328125 -11.851562 1.359375 -12.21875 C 1.398438 -12.59375 1.453125 -12.921875 1.515625 -13.203125 C 1.578125 -13.492188 1.664062 -13.789062 1.78125 -14.09375 C 2.257812 -15.601562 3.054688 -16.726562 4.171875 -17.46875 C 5.296875 -18.21875 6.664062 -18.59375 8.28125 -18.59375 C 9.84375 -18.59375 11.164062 -18.238281 12.25 -17.53125 C 13.34375 -16.820312 14.144531 -15.820312 14.65625 -14.53125 C 14.75 -14.363281 14.707031 -14.253906 14.53125 -14.203125 L 11.59375 -12.890625 C 11.4375 -12.796875 11.3125 -12.835938 11.21875 -13.015625 C 10.96875 -13.609375 10.613281 -14.101562 10.15625 -14.5 C 9.695312 -14.894531 9.082031 -15.09375 8.3125 -15.09375 C 7.59375 -15.09375 7.003906 -14.910156 6.546875 -14.546875 C 6.085938 -14.191406 5.757812 -13.703125 5.5625 -13.078125 C 5.507812 -12.910156 5.460938 -12.734375 5.421875 -12.546875 C 5.390625 -12.359375 5.359375 -12.117188 5.328125 -11.828125 C 5.304688 -11.546875 5.289062 -11.1875 5.28125 -10.75 C 5.28125 -10.320312 5.28125 -9.785156 5.28125 -9.140625 C 5.28125 -8.492188 5.28125 -7.957031 5.28125 -7.53125 C 5.289062 -7.101562 5.304688 -6.742188 5.328125 -6.453125 C 5.359375 -6.171875 5.390625 -5.9375 5.421875 -5.75 C 5.460938 -5.5625 5.507812 -5.382812 5.5625 -5.21875 C 5.757812 -4.59375 6.085938 -4.097656 6.546875 -3.734375 C 7.003906 -3.378906 7.59375 -3.203125 8.3125 -3.203125 C 9.082031 -3.203125 9.695312 -3.398438 10.15625 -3.796875 C 10.613281 -4.191406 10.96875 -4.6875 11.21875 -5.28125 C 11.3125 -5.457031 11.4375 -5.5 11.59375 -5.40625 L 14.53125 -4.09375 C 14.707031 -4.039062 14.75 -3.929688 14.65625 -3.765625 C 14.144531 -2.472656 13.34375 -1.472656 12.25 -0.765625 C 11.164062 -0.0546875 9.84375 0.296875 8.28125 0.296875 C 6.664062 0.296875 5.296875 -0.0703125 4.171875 -0.8125 C 3.054688 -1.5625 2.257812 -2.691406 1.78125 -4.203125 Z M 1.78125 -4.203125 "/></g></g></g><g fill="#ffffff" fill-opacity="1"><g transform="translate(248.978091, 226.449027)"><g><path d="M 5.78125 0 C 5.601562 0 5.515625 -0.0859375 5.515625 -0.265625 L 5.515625 -14.609375 C 5.515625 -14.710938 5.460938 -14.765625 5.359375 -14.765625 L 0.71875 -14.765625 C 0.539062 -14.765625 0.453125 -14.859375 0.453125 -15.046875 L 0.453125 -18.03125 C 0.453125 -18.207031 0.539062 -18.296875 0.71875 -18.296875 L 14.265625 -18.296875 C 14.441406 -18.296875 14.53125 -18.207031 14.53125 -18.03125 L 14.53125 -15.046875 C 14.53125 -14.859375 14.441406 -14.765625 14.265625 -14.765625 L 9.625 -14.765625 C 9.519531 -14.765625 9.46875 -14.710938 9.46875 -14.609375 L 9.46875 -0.265625 C 9.46875 -0.0859375 9.378906 0 9.203125 0 Z M 5.78125 0 "/></g></g></g><path fill="#f68712" d="M 97.277344 169.472656 L 88.109375 160.316406 L 86.796875 161.628906 L 95.957031 170.777344 C 96.382812 170.328125 96.820312 169.894531 97.277344 169.472656 " fill-opacity="1" fill-rule="nonzero"/><path fill="#f68712" d="M 141.949219 160.316406 L 132.78125 169.472656 C 133.238281 169.894531 133.675781 170.328125 134.101562 170.777344 L 143.261719 161.628906 L 141.949219 160.316406 " fill-opacity="1" fill-rule="nonzero"/><g clip-path="url(#dcabe70d16)"><path fill="#f68712" d="M 115.027344 162.527344 C 115.339844 162.527344 115.648438 162.535156 115.957031 162.546875 L 115.957031 149.566406 L 114.101562 149.566406 L 114.101562 162.546875 C 114.410156 162.535156 114.71875 162.527344 115.027344 162.527344 " fill-opacity="1" fill-rule="nonzero"/></g><g clip-path="url(#94528ef92f)"><path fill="#f68712" d="M 76.027344 187.585938 L 76.027344 189.4375 L 88.851562 189.4375 C 88.84375 189.1875 88.839844 188.933594 88.839844 188.679688 C 88.839844 188.3125 88.851562 187.949219 88.863281 187.585938 L 76.027344 187.585938 " fill-opacity="1" fill-rule="nonzero"/></g><path fill="#f68712" d="M 95.792969 206.414062 L 86.796875 215.394531 L 88.109375 216.707031 L 97.09375 207.730469 C 96.644531 207.308594 96.210938 206.867188 95.792969 206.414062 " fill-opacity="1" fill-rule="nonzero"/><g clip-path="url(#b63256fe6c)"><path fill="#f68712" d="M 141.207031 189.4375 L 154.03125 189.4375 L 154.03125 187.585938 L 141.191406 187.585938 C 141.207031 187.949219 141.21875 188.3125 141.21875 188.679688 C 141.21875 188.933594 141.214844 189.1875 141.207031 189.4375 " fill-opacity="1" fill-rule="nonzero"/></g><path fill="#f68712" d="M 132.960938 207.730469 L 141.949219 216.707031 L 143.261719 215.394531 L 134.265625 206.414062 C 133.847656 206.867188 133.414062 207.308594 132.960938 207.730469 " fill-opacity="1" fill-rule="nonzero"/><path fill="#f68712" d="M 123.261719 163.855469 C 123.851562 164.050781 124.433594 164.265625 125.003906 164.5 L 127.75 157.164062 C 127.179688 156.925781 126.601562 156.703125 126.015625 156.5 L 123.261719 163.855469 " fill-opacity="1" fill-rule="nonzero"/><path fill="#f68712" d="M 100.144531 158.152344 L 103.390625 165.257812 C 103.941406 164.984375 104.503906 164.726562 105.078125 164.492188 L 101.824219 157.367188 C 101.257812 157.613281 100.695312 157.875 100.144531 158.152344 " fill-opacity="1" fill-rule="nonzero"/><path fill="#f68712" d="M 83.386719 177.695312 L 90.234375 180.25 C 90.4375 179.664062 90.65625 179.085938 90.898438 178.519531 L 84 175.949219 C 83.78125 176.523438 83.574219 177.105469 83.386719 177.695312 " fill-opacity="1" fill-rule="nonzero"/><path fill="#f68712" d="M 84.679688 201.3125 C 84.933594 201.878906 85.199219 202.433594 85.484375 202.984375 L 91.539062 200.226562 C 91.265625 199.671875 91.015625 199.109375 90.78125 198.535156 L 84.679688 201.3125 " fill-opacity="1" fill-rule="nonzero"/><path fill="#f68712" d="M 138.382812 176.859375 C 138.664062 177.40625 138.925781 177.96875 139.167969 178.539062 L 145.875 175.484375 C 145.644531 174.910156 145.398438 174.34375 145.136719 173.785156 L 138.382812 176.859375 " fill-opacity="1" fill-rule="nonzero"/><path fill="#f68712" d="M 139.273438 198.546875 L 145.5625 200.894531 C 145.804688 200.328125 146.035156 199.75 146.246094 199.167969 L 139.914062 196.808594 C 139.71875 197.394531 139.507812 197.976562 139.273438 198.546875 " fill-opacity="1" fill-rule="nonzero"/><path fill="#393536" d="M 123.714844 220.980469 L 106.34375 220.980469 L 106.34375 217.449219 L 123.714844 217.449219 L 123.714844 220.980469 " fill-opacity="1" fill-rule="nonzero"/><g clip-path="url(#30a80cc918)"><path fill="#393536" d="M 121.445312 225.28125 L 108.609375 225.28125 L 108.609375 222.671875 L 121.445312 222.671875 L 121.445312 225.28125 " fill-opacity="1" fill-rule="nonzero"/></g><path fill="#f68712" d="M 129.082031 185.71875 L 127.054688 188.226562 C 126.9375 188.371094 126.722656 188.394531 126.574219 188.277344 C 126.425781 188.160156 126.402344 187.945312 126.523438 187.796875 L 128.507812 185.339844 L 127.367188 184.59375 L 124.503906 188.132812 L 124.226562 187.910156 C 124.160156 188.007812 124.089844 188.101562 124.011719 188.195312 C 122.433594 190.148438 119.574219 190.453125 117.621094 188.875 C 115.667969 187.300781 115.363281 184.445312 116.941406 182.496094 C 117.015625 182.398438 117.09375 182.308594 117.175781 182.222656 L 116.898438 182 L 119.761719 178.460938 L 115.78125 174.550781 C 119.511719 176.570312 127.746094 176.355469 127.746094 176.355469 C 127.746094 176.355469 129.269531 184.4375 132.03125 187.652344 Z M 115.027344 166.035156 C 102.765625 166.035156 92.824219 175.964844 92.824219 188.210938 C 92.824219 196.691406 97.59375 204.0625 104.601562 207.789062 C 104.148438 195.503906 110.292969 194.558594 109.519531 184.292969 C 108.957031 176.855469 111.050781 172.757812 111.050781 172.757812 C 110.089844 192.585938 123.394531 195.472656 133.296875 193.339844 C 133.296875 193.339844 132.226562 194.785156 123.800781 196.476562 C 114.785156 198.292969 108.609375 206.167969 114.273438 215.753906 L 124.488281 215.753906 L 124.488281 208.273438 C 132.019531 204.726562 137.234375 197.078125 137.234375 188.210938 C 137.234375 175.964844 127.292969 166.035156 115.027344 166.035156 " fill-opacity="1" fill-rule="nonzero"/><g fill="#ffffff" fill-opacity="1"><g transform="translate(156.202588, 199.181745)"><g><path d="M 4.75 -2.359375 L 4.75 -32.09375 L -0.28125 -32.09375 L -2.4375 -35.234375 L -2.4375 -35.796875 L 5.59375 -35.796875 C 4.65625 -36.753906 3.910156 -37.890625 3.359375 -39.203125 C 2.804688 -40.523438 2.53125 -41.84375 2.53125 -43.15625 C 2.53125 -45.632812 3.554688 -47.644531 5.609375 -49.1875 C 7.660156 -50.726562 10.296875 -51.5 13.515625 -51.5 C 17.410156 -51.5 21.226562 -50.632812 24.96875 -48.90625 C 28.707031 -47.1875 32.054688 -45.101562 35.015625 -42.65625 C 37.972656 -40.21875 40.582031 -37.707031 42.84375 -35.125 L 40.796875 -33.859375 C 37.273438 -37.710938 33.300781 -40.929688 28.875 -43.515625 C 24.457031 -46.109375 19.957031 -47.40625 15.375 -47.40625 C 12.800781 -47.40625 10.679688 -46.773438 9.015625 -45.515625 C 7.347656 -44.265625 6.515625 -42.617188 6.515625 -40.578125 C 6.515625 -38.941406 6.945312 -37.347656 7.8125 -35.796875 L 13.296875 -35.796875 L 15.453125 -32.65625 L 15.453125 -32.09375 L 8.765625 -32.09375 L 8.765625 0.25 L 8.265625 0.25 Z M 4.75 -2.359375 "/></g></g></g><g fill="#ffffff" fill-opacity="1"><g transform="translate(169.773627, 199.181745)"><g><path d="M 21.578125 -1.859375 L 17.984375 0.25 L 13.203125 -5.84375 C 11.484375 -8.125 10.144531 -9.828125 9.1875 -10.953125 C 8.4375 -10.753906 7.535156 -10.65625 6.484375 -10.65625 C 5.234375 -10.65625 4.140625 -11.050781 3.203125 -11.84375 C 2.265625 -12.632812 1.796875 -13.59375 1.796875 -14.71875 C 1.796875 -15.726562 2.132812 -16.519531 2.8125 -17.09375 C 3.5 -17.664062 4.34375 -17.953125 5.34375 -17.953125 C 6.03125 -17.953125 6.675781 -17.800781 7.28125 -17.5 C 7.894531 -17.207031 8.691406 -16.65625 9.671875 -15.84375 C 11.222656 -16.40625 12.597656 -17.644531 13.796875 -19.5625 C 10.398438 -20.757812 7.800781 -22.257812 6 -24.0625 C 4.207031 -25.875 3.3125 -27.894531 3.3125 -30.125 C 3.3125 -31.976562 3.898438 -33.46875 5.078125 -34.59375 C 6.265625 -35.726562 7.800781 -36.296875 9.6875 -36.296875 C 12.351562 -36.296875 14.691406 -35.148438 16.703125 -32.859375 C 18.710938 -30.566406 19.71875 -28.035156 19.71875 -25.265625 C 19.71875 -19.304688 17.0625 -14.847656 11.75 -11.890625 C 17.007812 -6.429688 20.285156 -3.085938 21.578125 -1.859375 Z M 37.6875 -32.09375 L 31.015625 -32.09375 L 31.015625 0.28125 L 30.484375 0.28125 L 27 -2.328125 L 27 -32.09375 L 23.15625 -32.09375 L 20.984375 -35.234375 L 20.984375 -35.796875 L 35.515625 -35.796875 L 37.6875 -32.65625 Z M 14.8125 -21.546875 C 15.59375 -23.421875 15.984375 -25.34375 15.984375 -27.3125 C 15.984375 -29.207031 15.601562 -30.617188 14.84375 -31.546875 C 14.09375 -32.472656 13.113281 -32.9375 11.90625 -32.9375 C 10.601562 -32.9375 9.523438 -32.507812 8.671875 -31.65625 C 7.816406 -30.800781 7.390625 -29.726562 7.390625 -28.4375 C 7.390625 -25.789062 9.863281 -23.492188 14.8125 -21.546875 Z M 14.8125 -21.546875 "/></g></g></g><g fill="#ffffff" fill-opacity="1"><g transform="translate(205.569701, 199.181745)"><g><path d="M 41.1875 -32.09375 L 34.53125 -32.09375 L 34.53125 0.28125 L 34 0.28125 L 30.515625 -2.328125 L 30.515625 -16.578125 C 28.890625 -16.066406 27.109375 -15.8125 25.171875 -15.8125 C 21.554688 -15.8125 18.175781 -16.601562 15.03125 -18.1875 C 13.457031 -17.15625 12.210938 -16.269531 11.296875 -15.53125 C 10.378906 -14.789062 9.597656 -13.929688 8.953125 -12.953125 C 8.304688 -11.984375 7.984375 -10.90625 7.984375 -9.71875 C 7.984375 -8.300781 8.421875 -7.144531 9.296875 -6.25 C 10.179688 -5.363281 11.332031 -4.921875 12.75 -4.921875 C 14.125 -4.921875 15.203125 -5.144531 15.984375 -5.59375 C 15.722656 -6.269531 15.59375 -7.019531 15.59375 -7.84375 C 15.59375 -8.695312 15.882812 -9.425781 16.46875 -10.03125 C 17.050781 -10.632812 17.789062 -10.9375 18.6875 -10.9375 C 19.957031 -10.9375 21.082031 -10.441406 22.0625 -9.453125 C 23.050781 -8.472656 23.546875 -7.328125 23.546875 -6.015625 C 23.546875 -5.242188 23.285156 -4.492188 22.765625 -3.765625 C 22.253906 -3.035156 21.421875 -2.445312 20.265625 -2 C 21.703125 0.289062 24.003906 2.859375 27.171875 5.703125 L 22.625 7.59375 C 20.632812 4.644531 19.019531 1.644531 17.78125 -1.40625 C 16.9375 -1.238281 16.140625 -1.15625 15.390625 -1.15625 C 12.546875 -1.15625 9.945312 -2.328125 7.59375 -4.671875 C 6.1875 -6.035156 5.179688 -7.25 4.578125 -8.3125 C 3.984375 -9.382812 3.6875 -10.507812 3.6875 -11.6875 C 3.6875 -13.050781 4.007812 -14.269531 4.65625 -15.34375 C 5.300781 -16.425781 6.109375 -17.363281 7.078125 -18.15625 C 8.054688 -18.957031 9.296875 -19.847656 10.796875 -20.828125 C 7.210938 -23.523438 5.421875 -26.367188 5.421875 -29.359375 C 5.421875 -31.285156 6.023438 -32.835938 7.234375 -34.015625 C 8.441406 -35.203125 10.03125 -35.796875 12 -35.796875 C 13.625 -35.796875 15.1875 -35.222656 16.6875 -34.078125 C 18.1875 -32.941406 19.378906 -31.648438 20.265625 -30.203125 C 21.160156 -28.765625 21.609375 -27.285156 21.609375 -25.765625 C 21.609375 -24.679688 21.273438 -23.679688 20.609375 -22.765625 C 19.941406 -21.859375 19 -20.945312 17.78125 -20.03125 C 19.257812 -19.71875 20.738281 -19.5625 22.21875 -19.5625 C 25.332031 -19.5625 28.097656 -20.128906 30.515625 -21.265625 L 30.515625 -32.09375 L 26.296875 -32.09375 L 24.140625 -35.234375 L 24.140625 -35.796875 L 39.03125 -35.796875 L 41.1875 -32.65625 Z M 12.890625 -22.203125 C 14.378906 -23.171875 15.515625 -24.125 16.296875 -25.0625 C 17.085938 -26 17.484375 -27.054688 17.484375 -28.234375 C 17.484375 -29.265625 17.171875 -30.132812 16.546875 -30.84375 C 15.929688 -31.5625 15.085938 -31.921875 14.015625 -31.921875 C 12.878906 -31.921875 11.9375 -31.535156 11.1875 -30.765625 C 10.4375 -29.992188 10.0625 -29.019531 10.0625 -27.84375 C 10.0625 -25.539062 11.003906 -23.660156 12.890625 -22.203125 Z M 12.890625 -22.203125 "/></g></g></g><g fill="#ffffff" fill-opacity="1"><g transform="translate(244.877948, 199.181745)"><g><path d="M 15.453125 -32.09375 L 8.796875 -32.09375 L 8.796875 0.28125 L 8.265625 0.28125 L 4.78125 -2.328125 L 4.78125 -32.09375 L -0.28125 -32.09375 L -2.4375 -35.234375 L -2.4375 -35.796875 L 13.296875 -35.796875 L 15.453125 -32.65625 Z M 15.453125 -32.09375 "/></g></g></g></svg>