<svg xmlns="http://www.w3.org/2000/svg" xmlns:xlink="http://www.w3.org/1999/xlink" width="500" zoomAndPan="magnify" viewBox="0 0 375 374.999991" height="500" preserveAspectRatio="xMidYMid meet" version="1.0"><defs><g/><clipPath id="1bb82245aa"><path d="M 0.867188 106.28125 L 375 106.28125 L 375 297.40625 L 0.867188 297.40625 Z M 0.867188 106.28125 " clip-rule="nonzero"/></clipPath><clipPath id="3ea7e4b6bd"><path d="M 86.410156 176.277344 L 290.3125 176.277344 L 290.3125 234.265625 L 86.410156 234.265625 Z M 86.410156 176.277344 " clip-rule="nonzero"/></clipPath></defs><path fill="#285430" d="M 328.886719 60.726562 C 330.070312 61.097656 331.777344 61.550781 331.777344 62.894531 L 331.777344 66.644531 C 331.777344 66.902344 331.691406 67.125 331.171875 67.292969 C 222.246094 100.96875 352.136719 60.738281 194.925781 109.480469 C 193.761719 109.84375 190.230469 109.84375 189.0625 109.480469 C 156.78125 99.472656 124.570312 89.40625 92.339844 79.421875 C 91.742188 79.238281 91.742188 78.390625 92.339844 78.207031 L 185.082031 49.527344 C 185.261719 49.472656 185.453125 49.503906 185.613281 49.605469 C 187.191406 50.601562 189.460938 51.230469 191.988281 51.230469 C 196.726562 51.230469 200.566406 49.03125 200.566406 46.324219 C 200.566406 43.605469 196.710938 41.410156 191.972656 41.410156 C 187.789062 41.410156 184.28125 43.128906 183.535156 45.402344 C 183.46875 45.59375 183.277344 45.746094 183.085938 45.804688 L 83.679688 76.519531 C 83.414062 76.601562 83.078125 76.847656 83.078125 77.128906 L 83.078125 102.289062 C 83.078125 102.578125 83.425781 102.835938 83.707031 102.902344 C 88.945312 104.1875 93.015625 108.9375 93.015625 114.578125 C 93.015625 119.367188 90.183594 123.523438 86.109375 125.449219 C 85.820312 125.585938 85.660156 125.945312 85.78125 126.246094 C 85.894531 126.535156 85.859375 126.867188 85.695312 127.128906 C 85.496094 127.445312 85.589844 127.839844 85.910156 128.03125 C 96.476562 134.273438 98.601562 155.523438 97.445312 166.984375 C 97.421875 167.214844 97.273438 167.414062 97.058594 167.503906 C 86.882812 171.726562 75.171875 171.726562 65 167.503906 C 64.785156 167.414062 64.636719 167.214844 64.613281 166.984375 C 63.464844 155.515625 65.574219 134.269531 76.148438 128.027344 C 76.472656 127.835938 76.566406 127.445312 76.367188 127.125 C 76.203125 126.867188 76.171875 126.53125 76.285156 126.242188 C 76.40625 125.945312 76.253906 125.585938 75.964844 125.449219 C 71.890625 123.523438 69.078125 119.367188 69.078125 114.578125 C 69.078125 108.902344 73.070312 104.128906 78.359375 102.886719 C 78.640625 102.820312 78.910156 102.5625 78.910156 102.269531 L 78.910156 75.84375 C 78.910156 75.5625 78.480469 75.316406 78.214844 75.234375 L 52.273438 67.292969 C 51.753906 67.125 51.121094 66.902344 51.121094 66.644531 L 51.121094 62.894531 C 51.121094 62.238281 54.332031 60.9375 54.996094 60.726562 L 186.660156 20.015625 C 190.496094 18.824219 193.425781 18.824219 197.261719 20.015625 Z M 268.6875 91.636719 L 194.441406 114.601562 C 193.289062 114.960938 190.214844 114.960938 189.0625 114.601562 L 114.816406 91.636719 C 114.203125 91.449219 113.539062 91.714844 113.234375 92.277344 C 107.242188 103.363281 103.496094 115.835938 102.589844 129.09375 C 102.539062 129.847656 103.105469 130.496094 103.859375 130.542969 C 137.003906 132.542969 165.734375 144.835938 190.914062 164.8125 C 191.40625 165.203125 192.097656 165.203125 192.589844 164.8125 C 217.757812 144.835938 246.5 132.542969 279.636719 130.542969 C 280.386719 130.496094 280.957031 129.847656 280.902344 129.09375 C 280 115.835938 276.253906 103.363281 270.269531 92.28125 C 269.964844 91.714844 269.300781 91.449219 268.6875 91.636719 " fill-opacity="1" fill-rule="evenodd"/><g clip-path="url(#1bb82245aa)"><path fill="#285430" d="M 22.058594 143.386719 C 22.335938 143.117188 22.644531 142.816406 22.976562 142.496094 C 23.316406 142.171875 23.683594 141.828125 24.066406 141.464844 C 24.816406 140.738281 25.644531 139.9375 26.503906 139.105469 C 27.332031 138.277344 28.195312 137.417969 29.042969 136.566406 C 29.921875 135.730469 30.796875 134.914062 31.585938 134.136719 C 30.691406 134.785156 29.746094 135.507812 28.789062 136.261719 C 27.878906 137.03125 26.976562 137.839844 26.101562 138.640625 C 24.375 140.25 22.726562 141.820312 21.703125 143.015625 C 20.421875 140.824219 21.351562 138.121094 23.480469 136.039062 C 24.527344 134.984375 26.019531 134.140625 27.671875 133.566406 C 29.332031 132.992188 31.199219 132.707031 33.179688 132.808594 C 33.039062 133.796875 32.816406 134.738281 32.523438 135.621094 C 32.238281 136.507812 31.851562 137.328125 31.507812 138.117188 C 30.777344 139.679688 29.816406 140.996094 28.75 142 C 26.574219 143.984375 24.144531 144.78125 22.058594 143.386719 Z M 18.304688 164.402344 C 20.75 165.582031 23.433594 164.335938 25.414062 161.824219 C 27.320312 159.285156 28.859375 155.535156 28.832031 151.132812 C 26.609375 151.300781 24.660156 151.894531 22.945312 152.773438 C 21.234375 153.648438 19.800781 154.816406 18.734375 156.113281 C 17.632812 157.402344 17.042969 158.839844 16.882812 160.226562 C 16.726562 161.609375 17.03125 162.941406 17.882812 164.046875 C 18.859375 162.582031 20.324219 160.59375 21.941406 158.566406 C 23.648438 156.550781 25.578125 154.507812 27.292969 152.820312 C 26.570312 153.785156 25.769531 154.816406 24.945312 155.863281 C 24.527344 156.386719 24.109375 156.914062 23.691406 157.4375 C 23.265625 157.964844 22.84375 158.488281 22.46875 159.007812 C 20.917969 161.089844 19.417969 163.042969 18.304688 164.402344 Z M 17.644531 186.695312 C 18.128906 185.867188 18.6875 184.859375 19.296875 183.75 C 19.914062 182.640625 20.511719 181.425781 21.273438 180.179688 C 21.984375 178.941406 22.726562 177.65625 23.457031 176.386719 C 24.1875 175.128906 24.808594 173.894531 25.53125 172.746094 C 24.652344 173.785156 23.882812 174.929688 23.054688 176.125 C 22.238281 177.316406 21.429688 178.558594 20.660156 179.785156 C 20.28125 180.398438 19.882812 181.007812 19.558594 181.601562 C 19.234375 182.203125 18.921875 182.785156 18.625 183.34375 C 18.039062 184.464844 17.523438 185.5 17.117188 186.375 C 16.007812 185.320312 15.453125 183.925781 15.382812 182.402344 C 15.371094 182.019531 15.371094 181.628906 15.429688 181.234375 C 15.496094 180.835938 15.589844 180.4375 15.714844 180.035156 C 15.957031 179.234375 16.320312 178.425781 16.785156 177.636719 C 17.71875 176.058594 19.054688 174.566406 20.769531 173.351562 C 22.535156 172.136719 24.632812 171.195312 26.976562 170.671875 C 27.128906 171.859375 27.132812 173.015625 27.109375 174.132812 C 27.109375 175.25 27.007812 176.328125 26.824219 177.351562 C 26.46875 179.394531 25.699219 181.238281 24.894531 182.757812 C 23.191406 185.78125 20.5 187.574219 17.644531 186.695312 Z M 20.546875 209.890625 C 20.921875 208.917969 21.351562 207.746094 21.808594 206.453125 C 22.042969 205.804688 22.253906 205.132812 22.523438 204.433594 C 22.796875 203.738281 23.078125 203.015625 23.363281 202.285156 C 24.511719 199.359375 25.578125 196.308594 26.726562 193.621094 C 25.195312 196.125 23.859375 199.082031 22.628906 201.972656 C 21.339844 204.867188 20.5 207.632812 19.917969 209.648438 C 18.539062 208.703125 17.695312 207.296875 17.355469 205.664062 C 17.101562 204.019531 17.363281 202.148438 18.089844 200.300781 C 18.453125 199.378906 18.929688 198.460938 19.519531 197.578125 C 20.105469 196.699219 20.882812 195.839844 21.71875 195.046875 C 23.40625 193.460938 25.496094 192.117188 27.925781 191.1875 C 28.660156 193.675781 28.8125 196.105469 28.832031 198.34375 C 28.8125 199.464844 28.691406 200.546875 28.480469 201.570312 C 28.289062 202.589844 27.9375 203.566406 27.640625 204.445312 C 26.335938 207.960938 23.761719 210.347656 20.546875 209.890625 Z M 27.480469 233.480469 C 27.953125 231.269531 28.390625 228.203125 29.148438 224.875 C 29.480469 223.242188 29.824219 221.550781 30.164062 219.878906 C 30.308594 219.058594 30.53125 218.222656 30.71875 217.417969 C 30.902344 216.617188 31.085938 215.828125 31.265625 215.066406 C 30.710938 216.515625 30.105469 218.105469 29.613281 219.730469 C 29.148438 221.34375 28.707031 223.015625 28.308594 224.660156 C 28.117188 225.484375 27.925781 226.300781 27.742188 227.089844 C 27.558594 227.886719 27.398438 228.660156 27.292969 229.386719 C 27.0625 230.855469 26.882812 232.199219 26.757812 233.328125 C 25.128906 232.558594 23.953125 231.214844 23.332031 229.519531 C 22.773438 227.804688 22.71875 225.761719 23.167969 223.671875 C 23.398438 222.621094 23.726562 221.566406 24.234375 220.515625 C 24.753906 219.460938 25.398438 218.421875 26.164062 217.433594 C 27.6875 215.457031 29.6875 213.675781 32.125 212.273438 C 32.726562 213.535156 33.191406 214.800781 33.53125 216.050781 C 33.699219 216.679688 33.835938 217.300781 33.945312 217.917969 C 34.085938 218.53125 34.207031 219.132812 34.292969 219.730469 C 34.648438 222.117188 34.511719 224.417969 34.070312 226.433594 C 33.300781 230.40625 30.984375 233.402344 27.480469 233.480469 Z M 38.753906 256.78125 C 38.808594 255.566406 38.847656 254.109375 38.875 252.511719 C 38.886719 251.71875 38.898438 250.882812 38.910156 250.023438 C 38.917969 249.59375 38.921875 249.164062 38.925781 248.722656 C 38.949219 248.277344 38.96875 247.824219 38.992188 247.367188 C 39.066406 245.578125 39.144531 243.722656 39.222656 241.886719 C 39.238281 241.4375 39.253906 240.988281 39.269531 240.542969 C 39.285156 240.09375 39.332031 239.640625 39.359375 239.199219 C 39.417969 238.316406 39.476562 237.449219 39.53125 236.613281 C 39.359375 237.429688 39.191406 238.28125 39.03125 239.160156 C 38.953125 239.601562 38.871094 240.042969 38.792969 240.492188 C 38.726562 240.9375 38.675781 241.378906 38.621094 241.828125 C 38.402344 243.625 38.21875 245.476562 38.074219 247.292969 C 37.898438 249.125 37.890625 250.855469 37.886719 252.457031 C 37.890625 254.0625 37.921875 255.527344 37.984375 256.753906 C 36.132812 256.230469 34.691406 254.992188 33.71875 253.308594 C 33.472656 252.890625 33.261719 252.445312 33.078125 251.972656 C 32.914062 251.492188 32.785156 250.988281 32.683594 250.464844 C 32.488281 249.417969 32.414062 248.300781 32.472656 247.148438 C 32.53125 245.992188 32.71875 244.804688 33.042969 243.613281 C 33.390625 242.414062 33.90625 241.191406 34.539062 240.011719 C 35.8125 237.644531 37.625 235.410156 39.964844 233.503906 C 41.699219 235.953125 42.734375 238.566406 43.566406 241.003906 C 44.339844 243.46875 44.566406 245.9375 44.539062 248.097656 C 44.375 252.449219 42.433594 256.066406 38.753906 256.78125 Z M 54.902344 278.835938 C 54.707031 277.5625 54.449219 276.035156 54.152344 274.371094 C 53.871094 272.691406 53.632812 270.804688 53.339844 268.914062 C 53.195312 267.972656 53.050781 267.015625 52.90625 266.050781 C 52.757812 265.09375 52.671875 264.089844 52.550781 263.128906 C 52.324219 261.191406 52.085938 259.316406 51.855469 257.578125 C 51.820312 259.324219 51.84375 261.214844 51.90625 263.167969 C 51.941406 264.144531 51.984375 265.132812 52.039062 266.125 C 52.128906 267.089844 52.234375 268.054688 52.34375 269.011719 C 52.5625 270.925781 52.816406 272.792969 53.085938 274.511719 C 53.414062 276.179688 53.753906 277.699219 54.070312 278.960938 C 53.039062 278.875 52.078125 278.582031 51.203125 278.117188 C 50.765625 277.882812 50.347656 277.605469 49.957031 277.292969 C 49.574219 276.964844 49.230469 276.589844 48.90625 276.1875 C 47.617188 274.558594 46.710938 272.402344 46.386719 269.957031 C 46.121094 267.472656 46.382812 264.742188 47.25 262.050781 C 47.667969 260.714844 48.285156 259.351562 49.058594 258.027344 C 49.824219 256.703125 50.742188 255.417969 51.8125 254.199219 C 53.925781 256.539062 55.746094 258.878906 56.917969 261.382812 C 57.203125 262.015625 57.5 262.617188 57.765625 263.222656 C 58.027344 263.824219 58.257812 264.433594 58.453125 265.039062 C 58.851562 266.25 59.117188 267.457031 59.257812 268.632812 C 59.570312 270.949219 59.449219 273.085938 58.734375 274.890625 C 58.03125 276.683594 56.777344 278.101562 54.902344 278.835938 Z M 16.136719 151.222656 C 14.597656 151.5 13.195312 151.085938 12.015625 150.109375 C 11.425781 149.621094 10.894531 148.992188 10.433594 148.242188 C 9.984375 147.492188 9.640625 146.632812 9.363281 145.667969 C 8.820312 143.738281 8.597656 141.40625 8.816406 138.886719 C 9.140625 136.398438 9.886719 133.71875 11.101562 131.097656 C 15.277344 134.097656 17.910156 138.214844 18.878906 141.910156 C 19.433594 143.785156 19.554688 145.570312 19.199219 147.121094 C 19.019531 147.898438 18.722656 148.617188 18.300781 149.257812 C 17.875 149.898438 17.394531 150.480469 16.738281 150.953125 C 16.585938 150.464844 16.414062 149.921875 16.230469 149.339844 C 16.0625 148.761719 15.882812 148.140625 15.691406 147.488281 C 15.296875 146.167969 14.859375 144.71875 14.410156 143.214844 C 13.414062 140.167969 12.601562 136.90625 11.71875 133.972656 C 11.945312 135.511719 12.222656 137.128906 12.527344 138.738281 L 12.761719 139.941406 C 12.847656 140.34375 12.957031 140.75 13.054688 141.148438 C 13.261719 141.945312 13.46875 142.734375 13.671875 143.511719 C 14.507812 146.59375 15.316406 149.324219 16.136719 151.222656 Z M 13.53125 173.738281 C 12.394531 171.777344 11 168.878906 9.535156 165.582031 C 9.152344 164.753906 8.851562 163.914062 8.527344 163.054688 C 8.207031 162.199219 7.894531 161.324219 7.585938 160.449219 C 6.988281 158.703125 6.363281 156.929688 5.914062 155.246094 C 7.28125 158.339844 8.839844 161.855469 10.296875 165.140625 C 11.855469 168.375 13.230469 171.296875 14.132812 173.367188 C 15.460938 172.09375 16.152344 170.492188 16.273438 168.710938 C 16.332031 167.824219 16.25 166.886719 16.035156 165.925781 C 15.8125 164.964844 15.5625 163.984375 15.128906 162.988281 C 14.289062 161.003906 12.957031 158.980469 11.199219 157.097656 C 9.476562 155.222656 7.394531 153.5 4.875 152.148438 C 4.609375 152.925781 4.378906 153.699219 4.183594 154.472656 C 4.082031 154.855469 3.992188 155.242188 3.910156 155.625 C 3.847656 156.011719 3.792969 156.394531 3.742188 156.777344 C 3.550781 158.300781 3.476562 159.792969 3.515625 161.214844 C 3.535156 161.925781 3.578125 162.617188 3.652344 163.289062 C 3.6875 163.625 3.726562 163.953125 3.777344 164.28125 C 3.839844 164.605469 3.910156 164.925781 3.988281 165.242188 C 4.292969 166.5 4.683594 167.65625 5.15625 168.6875 C 6.097656 170.753906 7.335938 172.308594 8.777344 173.195312 C 10.253906 174.082031 11.878906 174.300781 13.53125 173.738281 Z M 14.371094 197.4375 C 13.609375 196.457031 12.710938 195.234375 11.730469 193.832031 C 11.242188 193.132812 10.730469 192.386719 10.207031 191.605469 C 9.695312 190.824219 9.121094 190.011719 8.644531 189.160156 C 7.652344 187.46875 6.640625 185.664062 5.664062 183.835938 C 5.183594 182.921875 4.671875 182.003906 4.25 181.089844 C 3.832031 180.175781 3.429688 179.265625 3.046875 178.375 C 4.9375 181.625 7.371094 185.25 9.433594 188.546875 C 9.691406 188.957031 9.949219 189.363281 10.203125 189.765625 C 10.476562 190.167969 10.746094 190.558594 11.011719 190.949219 C 11.535156 191.71875 12.042969 192.464844 12.527344 193.171875 C 13.484375 194.589844 14.324219 195.855469 14.992188 196.910156 C 17.496094 193.675781 16.78125 189.480469 14.355469 185.398438 C 11.730469 181.347656 7.355469 177.324219 1.367188 175.105469 C 1.0625 176.902344 0.902344 178.679688 0.871094 180.402344 C 0.867188 180.828125 0.859375 181.253906 0.878906 181.675781 C 0.90625 182.097656 0.941406 182.515625 0.988281 182.925781 C 1.074219 183.75 1.195312 184.554688 1.339844 185.335938 C 1.628906 186.898438 2.023438 188.367188 2.507812 189.707031 C 2.996094 191.046875 3.675781 192.253906 4.359375 193.3125 C 7.136719 197.558594 10.894531 199.261719 14.371094 197.4375 Z M 19.171875 221.832031 C 18.171875 220.90625 16.980469 219.738281 15.667969 218.386719 C 15.015625 217.710938 14.328125 216.992188 13.621094 216.234375 C 13.273438 215.851562 12.902344 215.46875 12.554688 215.066406 C 12.21875 214.660156 11.875 214.25 11.53125 213.835938 C 10.15625 212.164062 8.738281 210.375 7.351562 208.550781 C 6.636719 207.640625 6.023438 206.707031 5.40625 205.78125 C 4.792969 204.851562 4.195312 203.929688 3.621094 203.023438 C 4.292969 203.824219 4.984375 204.652344 5.6875 205.5 C 6.035156 205.921875 6.386719 206.34375 6.742188 206.769531 C 7.085938 207.195312 7.449219 207.625 7.832031 208.046875 C 9.3125 209.714844 10.816406 211.40625 12.265625 213.039062 C 12.988281 213.84375 13.640625 214.640625 14.363281 215.382812 C 15.070312 216.125 15.753906 216.84375 16.40625 217.53125 C 17.695312 218.894531 18.832031 220.117188 19.75 221.136719 C 20.800781 219.171875 20.984375 217.074219 20.4375 214.984375 C 20.304688 214.464844 20.117188 213.941406 19.898438 213.421875 C 19.707031 212.894531 19.46875 212.367188 19.191406 211.847656 C 18.632812 210.804688 17.914062 209.777344 17.046875 208.78125 C 16.191406 207.785156 15.152344 206.824219 14.042969 205.90625 C 12.960938 204.984375 11.75 204.113281 10.421875 203.324219 C 7.765625 201.738281 4.65625 200.453125 1.238281 199.742188 C 1.070312 207.820312 3.800781 215.007812 7.585938 219.101562 C 11.363281 223.242188 15.726562 224.425781 19.171875 221.832031 Z M 28.324219 246.292969 C 27.03125 245.5 25.589844 244.4375 23.929688 243.222656 C 23.105469 242.613281 22.242188 241.960938 21.351562 241.269531 C 20.4375 240.585938 19.570312 239.835938 18.683594 239.054688 C 16.90625 237.496094 15.0625 235.816406 13.246094 234.089844 C 11.480469 232.347656 9.84375 230.519531 8.273438 228.761719 C 9.988281 230.253906 11.816406 231.847656 13.671875 233.460938 C 15.5625 235 17.480469 236.558594 19.328125 238.0625 C 20.25 238.800781 21.097656 239.539062 22 240.21875 C 22.886719 240.894531 23.75 241.546875 24.570312 242.167969 C 26.199219 243.410156 27.632812 244.523438 28.804688 245.457031 C 29.570312 243.152344 29.402344 240.859375 28.449219 238.710938 C 28.214844 238.171875 27.914062 237.648438 27.601562 237.125 C 27.296875 236.59375 26.949219 236.070312 26.558594 235.558594 C 25.773438 234.535156 24.816406 233.558594 23.710938 232.640625 C 23.15625 232.183594 22.566406 231.742188 21.9375 231.316406 C 21.625 231.101562 21.300781 230.890625 20.972656 230.6875 C 20.65625 230.476562 20.332031 230.269531 20 230.070312 C 18.671875 229.265625 17.214844 228.539062 15.644531 227.914062 C 14.078125 227.285156 12.402344 226.761719 10.640625 226.367188 C 8.875 225.972656 7.027344 225.710938 5.171875 225.601562 C 5.203125 225.875 5.234375 226.148438 5.265625 226.425781 C 5.316406 226.695312 5.367188 226.960938 5.417969 227.230469 C 5.519531 227.761719 5.632812 228.292969 5.757812 228.8125 C 6.003906 229.859375 6.285156 230.878906 6.597656 231.875 C 6.910156 232.867188 7.253906 233.832031 7.625 234.761719 C 7.980469 235.695312 8.46875 236.558594 8.921875 237.40625 C 10.804688 240.769531 12.929688 243.566406 15.386719 245.425781 C 17.785156 247.320312 20.203125 248.410156 22.441406 248.574219 C 24.714844 248.722656 26.742188 247.972656 28.324219 246.292969 Z M 42.234375 270 C 40.738281 269.382812 38.917969 268.585938 36.90625 267.613281 C 34.960938 266.597656 32.808594 265.414062 30.5625 264.113281 C 29.417969 263.476562 28.324219 262.761719 27.21875 262.027344 C 26.109375 261.292969 24.988281 260.539062 23.875 259.769531 C 21.605469 258.25 19.550781 256.570312 17.570312 254.945312 C 21.75 257.621094 26.636719 260.4375 31.046875 262.949219 C 33.285156 264.148438 35.441406 265.304688 37.40625 266.363281 C 38.355469 266.894531 39.328125 267.347656 40.199219 267.789062 C 41.066406 268.230469 41.871094 268.640625 42.605469 269.015625 C 42.957031 266.429688 42.242188 264.097656 40.921875 261.929688 C 40.238281 260.859375 39.355469 259.863281 38.296875 258.941406 C 38.03125 258.710938 37.753906 258.488281 37.46875 258.269531 C 37.195312 258.039062 36.914062 257.816406 36.621094 257.597656 C 36.035156 257.160156 35.40625 256.742188 34.742188 256.351562 C 33.414062 255.566406 31.929688 254.867188 30.324219 254.273438 C 29.507812 253.980469 28.707031 253.691406 27.871094 253.433594 C 27.035156 253.175781 26.167969 252.949219 25.28125 252.75 C 21.730469 251.957031 17.742188 251.671875 13.6875 252.105469 C 15.148438 256.683594 17.214844 260.847656 19.855469 264.121094 C 22.359375 267.472656 25.40625 269.929688 28.25 271.554688 C 28.972656 271.957031 29.664062 272.316406 30.386719 272.597656 C 31.109375 272.871094 31.816406 273.089844 32.511719 273.257812 C 33.894531 273.585938 35.210938 273.691406 36.421875 273.558594 C 38.84375 273.300781 40.855469 272.113281 42.234375 270 Z M 61.242188 291.980469 C 57.765625 291.355469 52.964844 289.976562 47.695312 288.078125 C 45.128906 287.070312 42.382812 285.992188 39.738281 284.765625 C 37.140625 283.5 34.53125 282.1875 32.113281 280.839844 C 34.605469 281.804688 37.269531 282.839844 39.972656 283.886719 C 41.28125 284.421875 42.675781 284.878906 44.023438 285.347656 C 45.363281 285.8125 46.695312 286.277344 48 286.730469 C 48.648438 286.953125 49.285156 287.175781 49.917969 287.394531 C 50.5625 287.589844 51.203125 287.789062 51.828125 287.980469 C 53.070312 288.363281 54.269531 288.730469 55.410156 289.085938 C 56.550781 289.429688 57.601562 289.78125 58.609375 290.074219 C 59.621094 290.359375 60.5625 290.625 61.410156 290.867188 C 61.335938 289.46875 60.96875 288.214844 60.4375 287.007812 C 59.914062 285.796875 59.164062 284.699219 58.21875 283.71875 C 56.28125 281.796875 53.75 280.148438 50.582031 279.042969 C 49.800781 278.757812 48.957031 278.523438 48.121094 278.289062 C 47.292969 278.046875 46.429688 277.839844 45.535156 277.667969 C 43.75 277.320312 41.847656 277.105469 39.867188 277.035156 C 37.863281 276.984375 35.863281 277.015625 33.792969 277.242188 C 31.726562 277.46875 29.613281 277.867188 27.5 278.476562 C 28.6875 280.800781 29.976562 283.019531 31.53125 284.929688 C 32.289062 285.902344 33.070312 286.828125 33.867188 287.707031 C 34.664062 288.582031 35.460938 289.425781 36.335938 290.15625 C 38.058594 291.652344 39.808594 292.941406 41.539062 294.007812 C 42.386719 294.558594 43.304688 294.984375 44.175781 295.386719 C 45.054688 295.78125 45.917969 296.117188 46.765625 296.402344 C 48.464844 296.960938 50.066406 297.316406 51.59375 297.390625 C 53.136719 297.457031 54.554688 297.296875 55.8125 296.914062 C 58.335938 296.148438 60.21875 294.484375 61.242188 291.980469 Z M 353.8125 138.414062 C 353.535156 138.140625 353.226562 137.84375 352.894531 137.519531 C 352.554688 137.195312 352.1875 136.851562 351.804688 136.492188 C 351.054688 135.761719 350.226562 134.960938 349.367188 134.128906 C 348.539062 133.300781 347.679688 132.441406 346.828125 131.589844 C 345.949219 130.753906 345.074219 129.9375 344.28125 129.160156 C 345.179688 129.808594 346.125 130.53125 347.082031 131.285156 C 347.992188 132.054688 348.894531 132.863281 349.769531 133.667969 C 351.496094 135.273438 353.144531 136.84375 354.167969 138.039062 C 355.449219 135.847656 354.519531 133.144531 352.390625 131.058594 C 351.34375 130.011719 349.851562 129.164062 348.199219 128.585938 C 346.539062 128.015625 344.671875 127.730469 342.691406 127.832031 C 342.832031 128.820312 343.054688 129.761719 343.347656 130.644531 C 343.636719 131.53125 344.015625 132.351562 344.363281 133.140625 C 345.09375 134.703125 346.054688 136.019531 347.125 137.023438 C 349.296875 139.007812 351.726562 139.804688 353.8125 138.414062 Z M 357.566406 159.425781 C 355.121094 160.605469 352.433594 159.359375 350.453125 156.851562 C 348.550781 154.3125 347.011719 150.558594 347.039062 146.15625 C 349.261719 146.324219 351.210938 146.921875 352.929688 147.796875 C 354.636719 148.675781 356.070312 149.839844 357.136719 151.136719 C 358.238281 152.425781 358.828125 153.863281 358.988281 155.25 C 359.144531 156.632812 358.839844 157.964844 357.988281 159.070312 C 357.011719 157.605469 355.546875 155.617188 353.929688 153.589844 C 352.226562 151.574219 350.292969 149.53125 348.578125 147.84375 C 349.304688 148.8125 350.101562 149.839844 350.925781 150.886719 C 351.34375 151.410156 351.761719 151.9375 352.179688 152.460938 C 352.605469 152.988281 353.027344 153.511719 353.402344 154.035156 C 354.953125 156.113281 356.453125 158.066406 357.566406 159.425781 Z M 358.226562 181.71875 C 357.742188 180.890625 357.179688 179.882812 356.574219 178.773438 C 355.957031 177.664062 355.359375 176.453125 354.597656 175.203125 C 353.886719 173.964844 353.144531 172.679688 352.414062 171.410156 C 351.683594 170.152344 351.0625 168.917969 350.339844 167.769531 C 351.21875 168.808594 351.988281 169.953125 352.816406 171.148438 C 353.632812 172.339844 354.441406 173.582031 355.210938 174.808594 C 355.589844 175.421875 355.988281 176.03125 356.316406 176.625 C 356.636719 177.230469 356.949219 177.8125 357.246094 178.367188 C 357.832031 179.488281 358.347656 180.523438 358.753906 181.398438 C 359.863281 180.347656 360.417969 178.953125 360.488281 177.425781 C 360.503906 177.042969 360.5 176.652344 360.441406 176.257812 C 360.375 175.863281 360.28125 175.460938 360.160156 175.0625 C 359.914062 174.257812 359.550781 173.449219 359.085938 172.660156 C 358.152344 171.082031 356.816406 169.589844 355.101562 168.375 C 353.335938 167.160156 351.238281 166.21875 348.894531 165.695312 C 348.742188 166.886719 348.738281 168.039062 348.761719 169.15625 C 348.761719 170.273438 348.863281 171.351562 349.046875 172.375 C 349.402344 174.417969 350.171875 176.261719 350.976562 177.78125 C 352.679688 180.804688 355.371094 182.597656 358.226562 181.71875 Z M 355.324219 204.914062 C 354.949219 203.941406 354.519531 202.769531 354.066406 201.476562 C 353.828125 200.828125 353.617188 200.160156 353.347656 199.457031 C 353.074219 198.761719 352.792969 198.042969 352.507812 197.308594 C 351.359375 194.382812 350.292969 191.332031 349.148438 188.644531 C 350.675781 191.148438 352.011719 194.105469 353.242188 196.996094 C 354.535156 199.890625 355.371094 202.65625 355.953125 204.671875 C 357.332031 203.726562 358.171875 202.320312 358.515625 200.6875 C 358.773438 199.042969 358.507812 197.171875 357.78125 195.328125 C 357.421875 194.40625 356.941406 193.488281 356.351562 192.605469 C 355.765625 191.722656 354.988281 190.863281 354.152344 190.070312 C 352.46875 188.480469 350.375 187.140625 347.945312 186.207031 C 347.210938 188.699219 347.058594 191.128906 347.039062 193.367188 C 347.058594 194.488281 347.179688 195.570312 347.390625 196.59375 C 347.582031 197.613281 347.929688 198.589844 348.230469 199.46875 C 349.535156 202.988281 352.109375 205.371094 355.324219 204.914062 Z M 348.390625 228.503906 C 347.921875 226.292969 347.480469 223.226562 346.722656 219.898438 C 346.390625 218.265625 346.046875 216.574219 345.707031 214.902344 C 345.5625 214.082031 345.339844 213.246094 345.152344 212.441406 C 344.964844 211.640625 344.785156 210.851562 344.609375 210.089844 C 345.160156 211.539062 345.765625 213.128906 346.257812 214.753906 C 346.722656 216.371094 347.164062 218.039062 347.5625 219.683594 C 347.757812 220.511719 347.945312 221.324219 348.128906 222.113281 C 348.3125 222.910156 348.476562 223.683594 348.578125 224.410156 C 348.808594 225.878906 348.988281 227.222656 349.113281 228.347656 C 350.742188 227.585938 351.921875 226.238281 352.539062 224.546875 C 353.097656 222.828125 353.152344 220.789062 352.703125 218.691406 C 352.472656 217.644531 352.144531 216.589844 351.636719 215.539062 C 351.117188 214.480469 350.472656 213.445312 349.707031 212.457031 C 348.183594 210.480469 346.179688 208.699219 343.746094 207.296875 C 343.144531 208.558594 342.679688 209.824219 342.34375 211.074219 C 342.171875 211.699219 342.035156 212.324219 341.925781 212.945312 C 341.785156 213.554688 341.664062 214.15625 341.578125 214.753906 C 341.222656 217.140625 341.359375 219.441406 341.800781 221.457031 C 342.570312 225.429688 344.886719 228.425781 348.390625 228.503906 Z M 337.117188 251.804688 C 337.0625 250.589844 337.023438 249.132812 336.996094 247.535156 C 336.984375 246.742188 336.972656 245.90625 336.960938 245.046875 C 336.957031 244.621094 336.949219 244.183594 336.945312 243.746094 C 336.921875 243.300781 336.902344 242.847656 336.878906 242.394531 C 336.804688 240.605469 336.726562 238.746094 336.648438 236.910156 C 336.632812 236.460938 336.617188 236.011719 336.601562 235.566406 C 336.585938 235.121094 336.539062 234.664062 336.511719 234.222656 C 336.453125 233.339844 336.398438 232.476562 336.339844 231.636719 C 336.515625 232.453125 336.679688 233.304688 336.839844 234.183594 C 336.917969 234.625 337 235.066406 337.078125 235.515625 C 337.144531 235.960938 337.195312 236.402344 337.25 236.851562 C 337.46875 238.648438 337.652344 240.5 337.796875 242.316406 C 337.972656 244.148438 337.980469 245.875 337.980469 247.480469 C 337.980469 249.085938 337.949219 250.554688 337.886719 251.773438 C 339.738281 251.253906 341.179688 250.011719 342.152344 248.335938 C 342.398438 247.914062 342.613281 247.46875 342.792969 246.996094 C 342.960938 246.515625 343.085938 246.011719 343.1875 245.488281 C 343.382812 244.441406 343.457031 243.324219 343.398438 242.171875 C 343.339844 241.019531 343.152344 239.828125 342.828125 238.636719 C 342.480469 237.4375 341.960938 236.214844 341.332031 235.035156 C 340.058594 232.667969 338.246094 230.433594 335.90625 228.527344 C 334.171875 230.976562 333.136719 233.589844 332.304688 236.027344 C 331.53125 238.492188 331.304688 240.960938 331.335938 243.121094 C 331.496094 247.476562 333.4375 251.089844 337.117188 251.804688 Z M 320.96875 273.859375 C 321.164062 272.585938 321.421875 271.058594 321.71875 269.394531 C 322 267.714844 322.238281 265.828125 322.53125 263.9375 C 322.675781 262.996094 322.820312 262.039062 322.96875 261.070312 C 323.113281 260.117188 323.199219 259.113281 323.320312 258.152344 C 323.550781 256.214844 323.785156 254.339844 324.019531 252.601562 C 324.050781 254.351562 324.027344 256.238281 323.964844 258.191406 C 323.929688 259.167969 323.886719 260.15625 323.832031 261.148438 C 323.742188 262.113281 323.640625 263.078125 323.53125 264.039062 C 323.3125 265.949219 323.054688 267.816406 322.785156 269.535156 C 322.457031 271.203125 322.117188 272.722656 321.800781 273.984375 C 322.832031 273.898438 323.792969 273.605469 324.667969 273.140625 C 325.105469 272.90625 325.523438 272.628906 325.914062 272.316406 C 326.296875 271.988281 326.640625 271.613281 326.964844 271.210938 C 328.253906 269.582031 329.160156 267.425781 329.484375 264.984375 C 329.75 262.496094 329.488281 259.765625 328.621094 257.074219 C 328.203125 255.738281 327.585938 254.375 326.816406 253.050781 C 326.046875 251.726562 325.128906 250.445312 324.058594 249.222656 C 321.945312 251.5625 320.125 253.90625 318.957031 256.410156 C 318.667969 257.039062 318.371094 257.644531 318.105469 258.246094 C 317.84375 258.847656 317.613281 259.457031 317.414062 260.0625 C 317.023438 261.273438 316.753906 262.480469 316.617188 263.65625 C 316.300781 265.972656 316.421875 268.109375 317.136719 269.914062 C 317.839844 271.707031 319.09375 273.125 320.96875 273.859375 Z M 359.738281 146.246094 C 361.273438 146.523438 362.679688 146.109375 363.855469 145.132812 C 364.445312 144.644531 364.976562 144.015625 365.441406 143.265625 C 365.886719 142.519531 366.234375 141.65625 366.507812 140.691406 C 367.050781 138.761719 367.273438 136.429688 367.054688 133.914062 C 366.730469 131.421875 365.984375 128.742188 364.769531 126.121094 C 360.597656 129.121094 357.960938 133.238281 356.992188 136.933594 C 356.4375 138.808594 356.316406 140.59375 356.671875 142.144531 C 356.851562 142.921875 357.148438 143.640625 357.570312 144.28125 C 357.996094 144.925781 358.476562 145.503906 359.132812 145.976562 C 359.285156 145.488281 359.457031 144.949219 359.640625 144.367188 C 359.8125 143.785156 359.988281 143.164062 360.179688 142.511719 C 360.574219 141.191406 361.011719 139.742188 361.460938 138.238281 C 362.460938 135.191406 363.265625 131.929688 364.152344 128.996094 C 363.925781 130.535156 363.648438 132.148438 363.34375 133.761719 L 363.109375 134.964844 C 363.023438 135.367188 362.914062 135.773438 362.816406 136.171875 C 362.609375 136.96875 362.402344 137.757812 362.203125 138.535156 C 361.363281 141.617188 360.554688 144.347656 359.738281 146.246094 Z M 362.34375 168.761719 C 363.476562 166.800781 364.871094 163.902344 366.335938 160.605469 C 366.71875 159.777344 367.019531 158.9375 367.34375 158.078125 C 367.664062 157.222656 367.976562 156.351562 368.285156 155.472656 C 368.882812 153.726562 369.507812 151.953125 369.960938 150.273438 C 368.589844 153.363281 367.03125 156.878906 365.574219 160.164062 C 364.019531 163.398438 362.640625 166.320312 361.734375 168.390625 C 360.414062 167.117188 359.71875 165.515625 359.597656 163.738281 C 359.539062 162.847656 359.621094 161.914062 359.835938 160.949219 C 360.054688 159.988281 360.3125 159.007812 360.742188 158.011719 C 361.582031 156.027344 362.914062 154.003906 364.671875 152.121094 C 366.394531 150.246094 368.476562 148.523438 370.996094 147.175781 C 371.261719 147.949219 371.492188 148.726562 371.6875 149.496094 C 371.785156 149.882812 371.882812 150.265625 371.960938 150.648438 C 372.023438 151.035156 372.078125 151.417969 372.128906 151.800781 C 372.320312 153.328125 372.394531 154.816406 372.355469 156.238281 C 372.335938 156.949219 372.292969 157.640625 372.21875 158.3125 C 372.183594 158.648438 372.144531 158.980469 372.09375 159.304688 C 372.027344 159.628906 371.960938 159.949219 371.882812 160.265625 C 371.578125 161.523438 371.1875 162.679688 370.714844 163.710938 C 369.773438 165.777344 368.535156 167.332031 367.09375 168.21875 C 365.617188 169.109375 363.992188 169.328125 362.34375 168.761719 Z M 361.5 192.460938 C 362.261719 191.480469 363.160156 190.257812 364.140625 188.855469 C 364.628906 188.15625 365.140625 187.410156 365.664062 186.628906 C 366.175781 185.847656 366.75 185.035156 367.226562 184.183594 C 368.21875 182.492188 369.230469 180.6875 370.207031 178.859375 C 370.6875 177.945312 371.203125 177.027344 371.621094 176.113281 C 372.039062 175.199219 372.441406 174.289062 372.824219 173.398438 C 370.9375 176.648438 368.5 180.273438 366.441406 183.570312 C 366.179688 183.980469 365.921875 184.390625 365.667969 184.792969 C 365.394531 185.1875 365.125 185.585938 364.859375 185.972656 C 364.335938 186.742188 363.828125 187.488281 363.34375 188.195312 C 362.386719 189.613281 361.546875 190.878906 360.878906 191.933594 C 358.375 188.699219 359.089844 184.507812 361.515625 180.425781 C 364.140625 176.371094 368.515625 172.347656 374.503906 170.128906 C 374.808594 171.925781 374.96875 173.707031 375 175.421875 C 375.003906 175.851562 375.011719 176.277344 374.992188 176.699219 C 374.964844 177.121094 374.925781 177.539062 374.886719 177.949219 C 374.796875 178.773438 374.675781 179.578125 374.53125 180.359375 C 374.242188 181.921875 373.847656 183.390625 373.367188 184.730469 C 372.875 186.070312 372.195312 187.277344 371.511719 188.335938 C 368.734375 192.582031 364.976562 194.285156 361.5 192.460938 Z M 356.703125 216.855469 C 357.699219 215.929688 358.890625 214.761719 360.203125 213.410156 C 360.855469 212.734375 361.542969 212.015625 362.25 211.257812 C 362.601562 210.878906 362.96875 210.492188 363.316406 210.089844 C 363.652344 209.6875 363.996094 209.273438 364.339844 208.859375 C 365.714844 207.1875 367.132812 205.398438 368.519531 203.574219 C 369.234375 202.664062 369.847656 201.730469 370.464844 200.804688 C 371.078125 199.878906 371.675781 198.953125 372.25 198.046875 C 371.578125 198.847656 370.886719 199.679688 370.183594 200.523438 C 369.835938 200.945312 369.484375 201.367188 369.128906 201.796875 C 368.789062 202.222656 368.421875 202.644531 368.039062 203.066406 C 366.558594 204.738281 365.058594 206.429688 363.609375 208.0625 C 362.882812 208.867188 362.234375 209.660156 361.507812 210.40625 C 360.800781 211.148438 360.117188 211.867188 359.464844 212.554688 C 358.175781 213.917969 357.039062 215.140625 356.121094 216.160156 C 355.070312 214.195312 354.886719 212.097656 355.433594 210.011719 C 355.566406 209.488281 355.753906 208.964844 355.972656 208.445312 C 356.167969 207.917969 356.402344 207.390625 356.679688 206.871094 C 357.238281 205.828125 357.957031 204.800781 358.824219 203.804688 C 359.683594 202.808594 360.71875 201.847656 361.828125 200.929688 C 362.910156 200.007812 364.125 199.140625 365.449219 198.34375 C 368.105469 196.761719 371.214844 195.476562 374.632812 194.765625 C 374.800781 202.84375 372.070312 210.03125 368.289062 214.125 C 364.507812 218.265625 360.148438 219.453125 356.703125 216.855469 Z M 347.546875 241.316406 C 348.839844 240.523438 350.28125 239.460938 351.941406 238.246094 C 352.765625 237.636719 353.628906 236.984375 354.519531 236.292969 C 355.433594 235.609375 356.300781 234.859375 357.1875 234.078125 C 358.964844 232.519531 360.8125 230.839844 362.628906 229.113281 C 364.394531 227.371094 366.027344 225.542969 367.597656 223.785156 C 365.882812 225.277344 364.054688 226.871094 362.199219 228.488281 C 360.308594 230.023438 358.394531 231.582031 356.539062 233.089844 C 355.621094 233.824219 354.773438 234.5625 353.871094 235.242188 C 352.984375 235.914062 352.121094 236.570312 351.300781 237.191406 C 349.671875 238.433594 348.238281 239.546875 347.066406 240.480469 C 346.300781 238.171875 346.46875 235.882812 347.421875 233.734375 C 347.65625 233.195312 347.957031 232.675781 348.269531 232.148438 C 348.574219 231.617188 348.921875 231.09375 349.3125 230.582031 C 350.097656 229.558594 351.054688 228.585938 352.160156 227.667969 C 352.714844 227.207031 353.308594 226.765625 353.933594 226.335938 C 354.246094 226.125 354.570312 225.914062 354.902344 225.710938 C 355.214844 225.5 355.539062 225.292969 355.871094 225.09375 C 357.199219 224.289062 358.65625 223.5625 360.226562 222.9375 C 361.792969 222.308594 363.46875 221.785156 365.230469 221.390625 C 366.996094 220.996094 368.84375 220.734375 370.699219 220.625 C 370.667969 220.898438 370.636719 221.175781 370.601562 221.449219 C 370.554688 221.71875 370.503906 221.984375 370.457031 222.253906 C 370.351562 222.785156 370.238281 223.316406 370.113281 223.839844 C 369.871094 224.882812 369.589844 225.90625 369.273438 226.898438 C 368.960938 227.890625 368.617188 228.851562 368.246094 229.785156 C 367.890625 230.71875 367.402344 231.582031 366.949219 232.429688 C 365.066406 235.792969 362.941406 238.589844 360.484375 240.449219 C 358.085938 242.34375 355.667969 243.433594 353.433594 243.597656 C 351.160156 243.742188 349.128906 242.996094 347.546875 241.316406 Z M 333.636719 265.027344 C 335.132812 264.40625 336.957031 263.609375 338.964844 262.636719 C 340.910156 261.621094 343.0625 260.441406 345.308594 259.140625 C 346.453125 258.5 347.546875 257.785156 348.652344 257.050781 C 349.761719 256.316406 350.882812 255.5625 351.996094 254.792969 C 354.269531 253.277344 356.320312 251.59375 358.300781 249.96875 C 354.121094 252.644531 349.238281 255.460938 344.828125 257.972656 C 342.585938 259.171875 340.429688 260.332031 338.464844 261.386719 C 337.515625 261.917969 336.542969 262.371094 335.675781 262.8125 C 334.804688 263.253906 334 263.667969 333.265625 264.039062 C 332.914062 261.453125 333.628906 259.121094 334.949219 256.953125 C 335.632812 255.882812 336.515625 254.886719 337.574219 253.964844 C 337.839844 253.738281 338.117188 253.511719 338.402344 253.292969 C 338.675781 253.0625 338.957031 252.839844 339.25 252.621094 C 339.835938 252.183594 340.460938 251.769531 341.128906 251.375 C 342.457031 250.589844 343.941406 249.890625 345.546875 249.296875 C 346.363281 249.007812 347.164062 248.714844 348 248.457031 C 348.835938 248.199219 349.703125 247.972656 350.589844 247.773438 C 354.140625 246.980469 358.128906 246.695312 362.183594 247.128906 C 360.71875 251.707031 358.65625 255.871094 356.015625 259.140625 C 353.511719 262.496094 350.464844 264.953125 347.621094 266.578125 C 346.898438 266.980469 346.207031 267.339844 345.488281 267.617188 C 344.765625 267.894531 344.054688 268.117188 343.359375 268.28125 C 341.976562 268.609375 340.664062 268.714844 339.449219 268.582031 C 337.027344 268.328125 335.019531 267.136719 333.636719 265.027344 Z M 314.625 287.003906 C 318.105469 286.382812 322.90625 285 328.175781 283.101562 C 330.746094 282.09375 333.488281 281.015625 336.132812 279.789062 C 338.730469 278.527344 341.34375 277.210938 343.757812 275.863281 C 341.265625 276.828125 338.601562 277.863281 335.898438 278.914062 C 334.589844 279.445312 333.195312 279.902344 331.847656 280.375 C 330.507812 280.839844 329.179688 281.300781 327.871094 281.753906 C 327.222656 281.976562 326.585938 282.199219 325.953125 282.417969 C 325.308594 282.617188 324.667969 282.8125 324.042969 283.003906 C 322.800781 283.386719 321.601562 283.753906 320.460938 284.105469 C 319.320312 284.453125 318.269531 284.804688 317.261719 285.097656 C 316.25 285.382812 315.308594 285.648438 314.457031 285.890625 C 314.535156 284.492188 314.902344 283.238281 315.433594 282.03125 C 315.957031 280.820312 316.707031 279.722656 317.652344 278.742188 C 319.589844 276.820312 322.121094 275.171875 325.289062 274.066406 C 326.070312 273.78125 326.914062 273.546875 327.75 273.3125 C 328.582031 273.074219 329.441406 272.863281 330.335938 272.691406 C 332.121094 272.34375 334.023438 272.128906 336.003906 272.058594 C 338.007812 272.007812 340.007812 272.042969 342.078125 272.265625 C 344.144531 272.488281 346.257812 272.890625 348.371094 273.5 C 347.183594 275.824219 345.894531 278.042969 344.339844 279.957031 C 343.582031 280.925781 342.800781 281.851562 342.003906 282.730469 C 341.207031 283.605469 340.410156 284.449219 339.535156 285.183594 C 337.816406 286.675781 336.0625 287.964844 334.335938 289.035156 C 333.484375 289.582031 332.566406 290.007812 331.695312 290.410156 C 330.816406 290.804688 329.953125 291.144531 329.105469 291.425781 C 327.40625 291.984375 325.804688 292.339844 324.273438 292.414062 C 322.734375 292.480469 321.316406 292.320312 320.058594 291.9375 C 317.535156 291.171875 315.652344 289.507812 314.625 287.003906 Z M 356.179688 128.515625 C 355.84375 127.355469 355.402344 125.957031 354.894531 124.410156 C 354.636719 123.640625 354.363281 122.832031 354.082031 121.996094 C 353.933594 121.578125 353.800781 121.152344 353.632812 120.730469 C 353.457031 120.308594 353.285156 119.886719 353.109375 119.457031 C 352.394531 117.742188 351.636719 115.976562 350.871094 114.242188 C 350.511719 113.367188 350.039062 112.546875 349.621094 111.722656 C 349.1875 110.90625 348.761719 110.109375 348.351562 109.335938 C 348.667969 110.152344 348.992188 110.996094 349.324219 111.851562 C 349.65625 112.714844 350.046875 113.566406 350.335938 114.46875 C 350.964844 116.253906 351.621094 118.050781 352.273438 119.773438 C 352.4375 120.203125 352.601562 120.628906 352.761719 121.050781 C 352.921875 121.472656 353.046875 121.902344 353.191406 122.316406 C 353.472656 123.148438 353.746094 123.949219 354.003906 124.714844 C 354.535156 126.242188 355.035156 127.609375 355.476562 128.734375 C 353.65625 128.851562 352.015625 128.207031 350.660156 127.027344 C 349.980469 126.4375 349.371094 125.707031 348.84375 124.863281 C 348.3125 124.027344 347.894531 123.058594 347.460938 122.035156 C 346.625 119.976562 346.191406 117.519531 346.097656 114.847656 C 345.933594 112.210938 346.195312 109.316406 346.96875 106.3125 C 349.707031 107.589844 352.113281 109.378906 354.082031 111.398438 C 355.976562 113.445312 357.347656 115.757812 358.238281 117.976562 C 358.703125 119.082031 358.921875 120.207031 359.046875 121.265625 C 359.160156 122.328125 359.136719 123.335938 358.972656 124.257812 C 358.640625 126.101562 357.722656 127.589844 356.179688 128.515625 Z M 19.691406 133.492188 C 20.027344 132.332031 20.46875 130.933594 20.976562 129.386719 C 21.238281 128.617188 21.507812 127.808594 21.789062 126.972656 C 21.9375 126.554688 22.070312 126.128906 22.238281 125.707031 C 22.410156 125.285156 22.585938 124.863281 22.761719 124.433594 C 23.476562 122.71875 24.234375 120.953125 25 119.21875 C 25.359375 118.34375 25.832031 117.523438 26.25 116.695312 C 26.683594 115.882812 27.109375 115.085938 27.519531 114.3125 C 27.203125 115.125 26.878906 115.96875 26.546875 116.832031 C 26.21875 117.691406 25.828125 118.542969 25.535156 119.445312 C 24.90625 121.226562 24.25 123.027344 23.597656 124.75 C 23.433594 125.179688 23.269531 125.605469 23.109375 126.027344 C 22.949219 126.449219 22.824219 126.878906 22.683594 127.292969 C 22.398438 128.125 22.128906 128.925781 21.867188 129.691406 C 21.335938 131.21875 20.835938 132.585938 20.394531 133.710938 C 22.214844 133.828125 23.855469 133.183594 25.210938 132.003906 C 25.890625 131.410156 26.5 130.683594 27.027344 129.84375 C 27.558594 129.003906 27.972656 128.035156 28.410156 127.011719 C 29.246094 124.953125 29.679688 122.496094 29.773438 119.824219 C 29.941406 117.1875 29.675781 114.292969 28.902344 111.289062 C 26.164062 112.566406 23.757812 114.355469 21.789062 116.371094 C 19.894531 118.421875 18.523438 120.730469 17.632812 122.953125 C 17.167969 124.058594 16.949219 125.183594 16.824219 126.246094 C 16.710938 127.304688 16.734375 128.3125 16.898438 129.234375 C 17.234375 131.078125 18.148438 132.566406 19.691406 133.492188 " fill-opacity="1" fill-rule="evenodd"/></g><g fill="#285430" fill-opacity="1"><g transform="translate(67.596336, 342.531724)"><g><path d="M 17 0.75 C 11.945312 0.75 8.054688 -0.796875 5.328125 -3.890625 C 2.609375 -6.984375 1.25 -11.351562 1.25 -17 C 1.25 -20.59375 1.90625 -23.691406 3.21875 -26.296875 C 4.53125 -28.910156 6.429688 -30.90625 8.921875 -32.28125 C 11.421875 -33.664062 14.382812 -34.359375 17.8125 -34.359375 C 21.695312 -34.359375 25.703125 -33.476562 29.828125 -31.71875 C 29.523438 -28.726562 29.039062 -25.421875 28.375 -21.796875 L 24.59375 -21.546875 L 21.140625 -26.578125 C 19.679688 -27.015625 18.070312 -27.234375 16.3125 -27.234375 C 14.976562 -27.234375 13.710938 -27.113281 12.515625 -26.875 C 11.984375 -25.851562 11.550781 -24.492188 11.21875 -22.796875 C 10.882812 -21.097656 10.71875 -19.382812 10.71875 -17.65625 C 10.71875 -13.96875 11.390625 -11.234375 12.734375 -9.453125 C 14.085938 -7.671875 16.226562 -6.75 19.15625 -6.6875 C 20.3125 -6.6875 21.78125 -6.859375 23.5625 -7.203125 C 25.34375 -7.554688 27.082031 -8.015625 28.78125 -8.578125 L 30.328125 -3.09375 C 28.597656 -1.957031 26.507812 -1.03125 24.0625 -0.3125 C 21.625 0.394531 19.269531 0.75 17 0.75 Z M 17 0.75 "/></g></g></g><g fill="#285430" fill-opacity="1"><g transform="translate(99.659441, 342.531724)"><g><path d="M 17.65625 0.703125 C 12.132812 0.703125 8.019531 -0.691406 5.3125 -3.484375 C 2.601562 -6.285156 1.25 -10.523438 1.25 -16.203125 C 1.25 -19.898438 1.929688 -23.101562 3.296875 -25.8125 C 4.660156 -28.519531 6.601562 -30.601562 9.125 -32.0625 C 11.65625 -33.53125 14.664062 -34.265625 18.15625 -34.265625 C 29.257812 -34.265625 34.8125 -28.59375 34.8125 -17.25 C 34.8125 -13.53125 34.128906 -10.320312 32.765625 -7.625 C 31.398438 -4.9375 29.429688 -2.875 26.859375 -1.4375 C 24.285156 -0.0078125 21.21875 0.703125 17.65625 0.703125 Z M 18.703125 -6.1875 C 20.597656 -6.1875 22.410156 -6.664062 24.140625 -7.625 C 24.503906 -8.65625 24.785156 -9.941406 24.984375 -11.484375 C 25.179688 -13.035156 25.28125 -14.5625 25.28125 -16.0625 C 25.28125 -19.75 24.585938 -22.539062 23.203125 -24.4375 C 21.828125 -26.332031 19.8125 -27.28125 17.15625 -27.28125 C 15.257812 -27.28125 13.429688 -26.929688 11.671875 -26.234375 C 11.304688 -25.597656 11.023438 -24.554688 10.828125 -23.109375 C 10.628906 -21.671875 10.53125 -20.019531 10.53125 -18.15625 C 10.53125 -14.300781 11.226562 -11.34375 12.625 -9.28125 C 14.019531 -7.21875 16.046875 -6.1875 18.703125 -6.1875 Z M 18.703125 -6.1875 "/></g></g></g><g fill="#285430" fill-opacity="1"><g transform="translate(135.661869, 342.531724)"><g><path d="M 10.21875 -21.25 L 11.078125 -8.171875 C 11.109375 -7.410156 11.1875 -6.910156 11.3125 -6.671875 C 11.445312 -6.441406 11.75 -6.195312 12.21875 -5.9375 L 14.8125 -4.1875 L 14.609375 0 L 1.640625 0 L 1.390625 -5.4375 L 4.09375 -6.078125 L 4.296875 -25.734375 C 4.296875 -26.367188 4.242188 -26.800781 4.140625 -27.03125 C 4.035156 -27.257812 3.800781 -27.523438 3.4375 -27.828125 L 1.59375 -29.234375 L 1.9375 -33.609375 L 12.265625 -33.609375 L 27.328125 -14.3125 L 26.640625 -25.4375 C 26.597656 -26.238281 26.507812 -26.753906 26.375 -26.984375 C 26.25 -27.210938 25.953125 -27.460938 25.484375 -27.734375 L 22.890625 -29.421875 L 23.046875 -33.609375 L 35.90625 -33.609375 L 36.109375 -28.53125 L 33.5625 -27.4375 L 33.359375 -0.453125 L 27.625 1.453125 Z M 10.21875 -21.25 "/></g></g></g><g fill="#285430" fill-opacity="1"><g transform="translate(172.960771, 342.531724)"><g><path d="M 10.21875 -21.25 L 11.078125 -8.171875 C 11.109375 -7.410156 11.1875 -6.910156 11.3125 -6.671875 C 11.445312 -6.441406 11.75 -6.195312 12.21875 -5.9375 L 14.8125 -4.1875 L 14.609375 0 L 1.640625 0 L 1.390625 -5.4375 L 4.09375 -6.078125 L 4.296875 -25.734375 C 4.296875 -26.367188 4.242188 -26.800781 4.140625 -27.03125 C 4.035156 -27.257812 3.800781 -27.523438 3.4375 -27.828125 L 1.59375 -29.234375 L 1.9375 -33.609375 L 12.265625 -33.609375 L 27.328125 -14.3125 L 26.640625 -25.4375 C 26.597656 -26.238281 26.507812 -26.753906 26.375 -26.984375 C 26.25 -27.210938 25.953125 -27.460938 25.484375 -27.734375 L 22.890625 -29.421875 L 23.046875 -33.609375 L 35.90625 -33.609375 L 36.109375 -28.53125 L 33.5625 -27.4375 L 33.359375 -0.453125 L 27.625 1.453125 Z M 10.21875 -21.25 "/></g></g></g><g fill="#285430" fill-opacity="1"><g transform="translate(210.259674, 342.531724)"><g><path d="M 1.34375 -5.09375 L 4.984375 -6.078125 L 4.984375 -25.1875 C 4.984375 -26.050781 4.914062 -26.625 4.78125 -26.90625 C 4.65625 -27.1875 4.304688 -27.445312 3.734375 -27.6875 L 1.25 -29.125 L 1.390625 -33.609375 L 28.484375 -33.609375 C 28.710938 -30.117188 28.828125 -26.710938 28.828125 -23.390625 L 25.140625 -23.140625 L 21.59375 -27.53125 L 14.0625 -27.734375 L 14.0625 -19.59375 L 24.6875 -20.5 L 24.6875 -12.8125 L 14.0625 -13.96875 L 14.0625 -5.9375 L 22.34375 -6.078125 L 26.1875 -10.46875 L 29.875 -10.21875 C 29.738281 -6.726562 29.488281 -3.320312 29.125 0 L 1.59375 0 Z M 1.34375 -5.09375 "/></g></g></g><g fill="#285430" fill-opacity="1"><g transform="translate(241.325475, 342.531724)"><g><path d="M 17 0.75 C 11.945312 0.75 8.054688 -0.796875 5.328125 -3.890625 C 2.609375 -6.984375 1.25 -11.351562 1.25 -17 C 1.25 -20.59375 1.90625 -23.691406 3.21875 -26.296875 C 4.53125 -28.910156 6.429688 -30.90625 8.921875 -32.28125 C 11.421875 -33.664062 14.382812 -34.359375 17.8125 -34.359375 C 21.695312 -34.359375 25.703125 -33.476562 29.828125 -31.71875 C 29.523438 -28.726562 29.039062 -25.421875 28.375 -21.796875 L 24.59375 -21.546875 L 21.140625 -26.578125 C 19.679688 -27.015625 18.070312 -27.234375 16.3125 -27.234375 C 14.976562 -27.234375 13.710938 -27.113281 12.515625 -26.875 C 11.984375 -25.851562 11.550781 -24.492188 11.21875 -22.796875 C 10.882812 -21.097656 10.71875 -19.382812 10.71875 -17.65625 C 10.71875 -13.96875 11.390625 -11.234375 12.734375 -9.453125 C 14.085938 -7.671875 16.226562 -6.75 19.15625 -6.6875 C 20.3125 -6.6875 21.78125 -6.859375 23.5625 -7.203125 C 25.34375 -7.554688 27.082031 -8.015625 28.78125 -8.578125 L 30.328125 -3.09375 C 28.597656 -1.957031 26.507812 -1.03125 24.0625 -0.3125 C 21.625 0.394531 19.269531 0.75 17 0.75 Z M 17 0.75 "/></g></g></g><g fill="#285430" fill-opacity="1"><g transform="translate(273.388581, 342.531724)"><g><path d="M 8.578125 -4.890625 L 12.921875 -6.078125 L 12.921875 -27.6875 L 8.734375 -27.328125 L 5.03125 -22.890625 L 1.390625 -23.1875 C 1.390625 -25.945312 1.523438 -29.421875 1.796875 -33.609375 L 33.015625 -33.609375 C 33.285156 -29.421875 33.421875 -25.945312 33.421875 -23.1875 L 29.828125 -22.890625 L 26.078125 -27.328125 L 22 -27.6875 L 22 -8.078125 C 22 -7.273438 22.046875 -6.757812 22.140625 -6.53125 C 22.242188 -6.300781 22.53125 -6.066406 23 -5.828125 L 26.078125 -3.984375 L 25.890625 0 L 8.828125 0 Z M 8.578125 -4.890625 "/></g></g></g><g clip-path="url(#3ea7e4b6bd)"><path fill="#285430" d="M 264.601562 230.980469 C 272.460938 230.785156 280.519531 229.640625 288.53125 227.546875 C 289.210938 227.363281 289.769531 226.875 290.039062 226.21875 C 290.3125 225.5625 290.25 224.816406 289.90625 224.207031 L 267.933594 186.445312 C 267.496094 185.679688 266.652344 185.253906 265.792969 185.332031 L 259.695312 185.894531 L 259.695312 185.972656 L 259.425781 185.484375 C 259.183594 185.070312 258.683594 184.902344 258.246094 185.117188 C 257.75 185.359375 257.234375 185.589844 256.707031 185.789062 L 253.675781 180.429688 C 253.433594 180.019531 252.9375 179.851562 252.496094 180.066406 C 246.808594 182.84375 239.839844 183.222656 230.574219 181.253906 C 228.160156 180.734375 225.714844 180.109375 223.34375 179.5 C 218.367188 178.21875 213.21875 176.90625 208 176.539062 C 204.589844 176.308594 200.847656 177.257812 196.878906 179.347656 C 193.210938 181.285156 190.164062 183.773438 188.113281 185.710938 C 186.058594 183.773438 183.011719 181.285156 179.34375 179.347656 C 175.390625 177.257812 171.648438 176.308594 168.222656 176.539062 C 162.988281 176.890625 157.855469 178.21875 152.878906 179.5 C 150.507812 180.109375 148.0625 180.734375 145.648438 181.253906 C 136.386719 183.222656 129.414062 182.84375 123.726562 180.066406 C 123.300781 179.851562 122.789062 180.019531 122.546875 180.429688 L 119.558594 185.773438 C 119.03125 185.558594 118.519531 185.34375 118.019531 185.101562 C 117.597656 184.886719 117.085938 185.054688 116.84375 185.46875 L 116.585938 185.925781 L 116.585938 185.878906 L 110.945312 185.316406 C 110.070312 185.222656 109.222656 185.667969 108.785156 186.429688 L 86.816406 224.191406 C 86.46875 224.785156 86.410156 225.519531 86.664062 226.175781 C 86.921875 226.832031 87.449219 227.320312 88.113281 227.515625 C 99.113281 230.875 110.113281 232.339844 120.8125 231.882812 C 130.136719 231.484375 138.421875 229.699219 145.726562 228.113281 C 157.871094 225.488281 167.453125 223.425781 175.679688 228.875 C 177.519531 230.097656 179.207031 231.621094 180.65625 233.410156 C 181.078125 233.925781 181.714844 234.234375 182.394531 234.234375 L 192.957031 234.234375 C 193.605469 234.234375 194.207031 233.957031 194.644531 233.46875 C 196.621094 231.210938 198.886719 229.316406 201.40625 227.867188 C 210.324219 222.679688 219.859375 224.664062 231.929688 227.179688 C 241.164062 229.105469 251.683594 231.289062 264.601562 230.980469 Z M 258.277344 187.101562 L 260.101562 190.335938 L 260.101562 190.414062 L 260.132812 190.414062 L 277.757812 221.566406 C 270.394531 224.050781 261.460938 224.328125 249.75 222.417969 C 246.296875 221.855469 242.296875 221.015625 238.085938 220.128906 C 230.285156 218.480469 222.230469 216.773438 215.726562 216.4375 C 210.414062 216.160156 204.785156 217.167969 199.882812 219.289062 C 196.367188 220.800781 193.300781 222.847656 190.8125 225.304688 C 196.289062 214.285156 206.6875 212.269531 214.96875 212.695312 C 221.367188 213.03125 227.296875 214.269531 233.589844 215.582031 C 236.910156 216.269531 240.335938 216.984375 243.804688 217.550781 C 244.53125 217.671875 245.269531 217.792969 246.007812 217.917969 C 255.363281 219.457031 265.050781 221.0625 273.667969 217.855469 C 273.910156 217.765625 274.105469 217.566406 274.195312 217.304688 C 274.285156 217.0625 274.257812 216.773438 274.136719 216.542969 L 257.628906 187.375 C 257.855469 187.285156 258.066406 187.191406 258.277344 187.101562 Z M 207.910156 178.355469 C 212.980469 178.707031 218.035156 180.003906 222.9375 181.253906 C 225.320312 181.867188 227.796875 182.507812 230.242188 183.027344 C 239.507812 184.996094 246.628906 184.6875 252.558594 182.046875 L 272.054688 216.496094 C 264.117188 219.0625 255.078125 217.566406 246.3125 216.117188 C 245.570312 215.992188 244.832031 215.871094 244.109375 215.75 C 240.667969 215.199219 237.273438 214.484375 233.96875 213.796875 C 227.902344 212.527344 221.625 211.214844 215.078125 210.863281 C 208.890625 210.542969 203.488281 211.613281 199.035156 214.039062 C 194.585938 216.464844 191.175781 220.222656 188.867188 225.226562 L 189.0625 187.34375 C 191.734375 184.78125 199.835938 177.804688 207.910156 178.355469 Z M 123.738281 182.046875 C 129.65625 184.6875 136.777344 184.996094 146.058594 183.027344 C 148.515625 182.507812 150.976562 181.867188 153.359375 181.253906 C 158.25 180.003906 163.320312 178.691406 168.390625 178.355469 C 176.460938 177.804688 184.550781 184.765625 187.25 187.34375 L 187.054688 224.90625 C 184.808594 219.609375 181.457031 215.78125 177.066406 213.503906 C 172.796875 211.292969 168.027344 210.804688 164.132812 210.804688 C 163.09375 210.804688 162.113281 210.835938 161.222656 210.878906 C 154.671875 211.214844 148.394531 212.527344 142.332031 213.8125 C 139.039062 214.496094 135.628906 215.214844 132.207031 215.765625 C 131.464844 215.886719 130.742188 216.007812 130.003906 216.132812 C 121.25 217.582031 112.195312 219.078125 104.261719 216.511719 Z M 118.007812 187.101562 C 118.21875 187.191406 118.445312 187.285156 118.65625 187.375 L 102.148438 216.558594 C 102.011719 216.789062 101.996094 217.0625 102.085938 217.320312 C 102.175781 217.582031 102.375 217.765625 102.613281 217.871094 C 111.230469 221.089844 120.917969 219.488281 130.273438 217.933594 C 131.011719 217.808594 131.753906 217.6875 132.476562 217.566406 C 135.949219 217 139.371094 216.285156 142.691406 215.597656 C 148.96875 214.285156 154.898438 213.03125 161.3125 212.710938 C 169.988281 212.253906 180.234375 213.476562 185.410156 225.671875 C 182.890625 223.046875 179.765625 220.878906 176.175781 219.304688 C 171.378906 217.183594 165.824219 216.175781 160.542969 216.453125 C 154.023438 216.789062 145.96875 218.496094 138.179688 220.144531 C 133.957031 221.03125 129.972656 221.886719 126.515625 222.433594 C 114.808594 224.328125 105.859375 224.066406 98.511719 221.578125 L 116.136719 190.429688 L 116.148438 190.429688 L 116.148438 190.382812 Z M 183.417969 229.699219 C 181.835938 227.914062 180.070312 226.355469 178.136719 225.074219 C 168.34375 218.589844 157.433594 220.9375 144.789062 223.671875 C 137.652344 225.210938 129.578125 226.953125 120.632812 227.335938 C 111.335938 227.730469 101.785156 226.601562 92.171875 223.960938 L 111.957031 189.96875 L 114.1875 190.199219 L 96.429688 221.59375 C 96.292969 221.824219 96.277344 222.097656 96.367188 222.359375 C 96.457031 222.601562 96.65625 222.800781 96.894531 222.90625 C 104.742188 225.839844 114.25 226.25 126.820312 224.207031 C 130.320312 223.640625 134.332031 222.785156 138.574219 221.898438 C 146.300781 220.265625 154.296875 218.574219 160.664062 218.253906 C 168.707031 217.839844 180.070312 220.617188 186.4375 229.699219 Z M 199.140625 223.929688 C 196.5 225.472656 194.085938 227.410156 191.960938 229.699219 L 189.453125 229.699219 C 195.476562 221.183594 206.792969 217.792969 215.648438 218.253906 C 222.015625 218.589844 230.015625 220.265625 237.742188 221.898438 C 241.980469 222.800781 245.980469 223.640625 249.496094 224.207031 C 262.066406 226.25 271.570312 225.824219 279.417969 222.90625 C 279.660156 222.816406 279.855469 222.617188 279.945312 222.359375 C 280.035156 222.113281 280.007812 221.824219 279.886719 221.59375 L 262.140625 190.214844 L 264.8125 189.96875 L 284.53125 223.855469 C 277.816406 225.410156 271.101562 226.28125 264.523438 226.433594 C 252.121094 226.738281 241.875 224.601562 232.835938 222.722656 C 220.3125 220.128906 209.523438 217.871094 199.140625 223.929688 Z M 199.140625 223.929688 " fill-opacity="1" fill-rule="nonzero"/><path fill="#285430" d="M 264.601562 230.980469 C 272.460938 230.785156 280.519531 229.640625 288.53125 227.546875 C 289.210938 227.363281 289.769531 226.875 290.039062 226.21875 C 290.3125 225.5625 290.25 224.816406 289.90625 224.207031 L 267.933594 186.445312 C 267.496094 185.679688 266.652344 185.253906 265.792969 185.332031 L 259.695312 185.894531 L 259.695312 185.972656 L 259.425781 185.484375 C 259.183594 185.070312 258.683594 184.902344 258.246094 185.117188 C 257.75 185.359375 257.234375 185.589844 256.707031 185.789062 L 253.675781 180.429688 C 253.433594 180.019531 252.9375 179.851562 252.496094 180.066406 C 246.808594 182.84375 239.839844 183.222656 230.574219 181.253906 C 228.160156 180.734375 225.714844 180.109375 223.34375 179.5 C 218.367188 178.21875 213.21875 176.90625 208 176.539062 C 204.589844 176.308594 200.847656 177.257812 196.878906 179.347656 C 193.210938 181.285156 190.164062 183.773438 188.113281 185.710938 C 186.058594 183.773438 183.011719 181.285156 179.34375 179.347656 C 175.390625 177.257812 171.648438 176.308594 168.222656 176.539062 C 162.988281 176.890625 157.855469 178.21875 152.878906 179.5 C 150.507812 180.109375 148.0625 180.734375 145.648438 181.253906 C 136.386719 183.222656 129.414062 182.84375 123.726562 180.066406 C 123.300781 179.851562 122.789062 180.019531 122.546875 180.429688 L 119.558594 185.773438 C 119.03125 185.558594 118.519531 185.34375 118.019531 185.101562 C 117.597656 184.886719 117.085938 185.054688 116.84375 185.46875 L 116.585938 185.925781 L 116.585938 185.878906 L 110.945312 185.316406 C 110.070312 185.222656 109.222656 185.667969 108.785156 186.429688 L 86.816406 224.191406 C 86.46875 224.785156 86.410156 225.519531 86.664062 226.175781 C 86.921875 226.832031 87.449219 227.320312 88.113281 227.515625 C 99.113281 230.875 110.113281 232.339844 120.8125 231.882812 C 130.136719 231.484375 138.421875 229.699219 145.726562 228.113281 C 157.871094 225.488281 167.453125 223.425781 175.679688 228.875 C 177.519531 230.097656 179.207031 231.621094 180.65625 233.410156 C 181.078125 233.925781 181.714844 234.234375 182.394531 234.234375 L 192.957031 234.234375 C 193.605469 234.234375 194.207031 233.957031 194.644531 233.46875 C 196.621094 231.210938 198.886719 229.316406 201.40625 227.867188 C 210.324219 222.679688 219.859375 224.664062 231.929688 227.179688 C 241.164062 229.105469 251.683594 231.289062 264.601562 230.980469 Z M 258.277344 187.101562 L 260.101562 190.335938 L 260.101562 190.414062 L 260.132812 190.414062 L 277.757812 221.566406 C 270.394531 224.050781 261.460938 224.328125 249.75 222.417969 C 246.296875 221.855469 242.296875 221.015625 238.085938 220.128906 C 230.285156 218.480469 222.230469 216.773438 215.726562 216.4375 C 210.414062 216.160156 204.785156 217.167969 199.882812 219.289062 C 196.367188 220.800781 193.300781 222.847656 190.8125 225.304688 C 196.289062 214.285156 206.6875 212.269531 214.96875 212.695312 C 221.367188 213.03125 227.296875 214.269531 233.589844 215.582031 C 236.910156 216.269531 240.335938 216.984375 243.804688 217.550781 C 244.53125 217.671875 245.269531 217.792969 246.007812 217.917969 C 255.363281 219.457031 265.050781 221.0625 273.667969 217.855469 C 273.910156 217.765625 274.105469 217.566406 274.195312 217.304688 C 274.285156 217.0625 274.257812 216.773438 274.136719 216.542969 L 257.628906 187.375 C 257.855469 187.285156 258.066406 187.191406 258.277344 187.101562 Z M 207.910156 178.355469 C 212.980469 178.707031 218.035156 180.003906 222.9375 181.253906 C 225.320312 181.867188 227.796875 182.507812 230.242188 183.027344 C 239.507812 184.996094 246.628906 184.6875 252.558594 182.046875 L 272.054688 216.496094 C 264.117188 219.0625 255.078125 217.566406 246.3125 216.117188 C 245.570312 215.992188 244.832031 215.871094 244.109375 215.75 C 240.667969 215.199219 237.273438 214.484375 233.96875 213.796875 C 227.902344 212.527344 221.625 211.214844 215.078125 210.863281 C 208.890625 210.542969 203.488281 211.613281 199.035156 214.039062 C 194.585938 216.464844 191.175781 220.222656 188.867188 225.226562 L 189.0625 187.34375 C 191.734375 184.78125 199.835938 177.804688 207.910156 178.355469 Z M 123.738281 182.046875 C 129.65625 184.6875 136.777344 184.996094 146.058594 183.027344 C 148.515625 182.507812 150.976562 181.867188 153.359375 181.253906 C 158.25 180.003906 163.320312 178.691406 168.390625 178.355469 C 176.460938 177.804688 184.550781 184.765625 187.25 187.34375 L 187.054688 224.90625 C 184.808594 219.609375 181.457031 215.78125 177.066406 213.503906 C 172.796875 211.292969 168.027344 210.804688 164.132812 210.804688 C 163.09375 210.804688 162.113281 210.835938 161.222656 210.878906 C 154.671875 211.214844 148.394531 212.527344 142.332031 213.8125 C 139.039062 214.496094 135.628906 215.214844 132.207031 215.765625 C 131.464844 215.886719 130.742188 216.007812 130.003906 216.132812 C 121.25 217.582031 112.195312 219.078125 104.261719 216.511719 Z M 118.007812 187.101562 C 118.21875 187.191406 118.445312 187.285156 118.65625 187.375 L 102.148438 216.558594 C 102.011719 216.789062 101.996094 217.0625 102.085938 217.320312 C 102.175781 217.582031 102.375 217.765625 102.613281 217.871094 C 111.230469 221.089844 120.917969 219.488281 130.273438 217.933594 C 131.011719 217.808594 131.753906 217.6875 132.476562 217.566406 C 135.949219 217 139.371094 216.285156 142.691406 215.597656 C 148.96875 214.285156 154.898438 213.03125 161.3125 212.710938 C 169.988281 212.253906 180.234375 213.476562 185.410156 225.671875 C 182.890625 223.046875 179.765625 220.878906 176.175781 219.304688 C 171.378906 217.183594 165.824219 216.175781 160.542969 216.453125 C 154.023438 216.789062 145.96875 218.496094 138.179688 220.144531 C 133.957031 221.03125 129.972656 221.886719 126.515625 222.433594 C 114.808594 224.328125 105.859375 224.066406 98.511719 221.578125 L 116.136719 190.429688 L 116.148438 190.429688 L 116.148438 190.382812 Z M 183.417969 229.699219 C 181.835938 227.914062 180.070312 226.355469 178.136719 225.074219 C 168.34375 218.589844 157.433594 220.9375 144.789062 223.671875 C 137.652344 225.210938 129.578125 226.953125 120.632812 227.335938 C 111.335938 227.730469 101.785156 226.601562 92.171875 223.960938 L 111.957031 189.96875 L 114.1875 190.199219 L 96.429688 221.59375 C 96.292969 221.824219 96.277344 222.097656 96.367188 222.359375 C 96.457031 222.601562 96.65625 222.800781 96.894531 222.90625 C 104.742188 225.839844 114.25 226.25 126.820312 224.207031 C 130.320312 223.640625 134.332031 222.785156 138.574219 221.898438 C 146.300781 220.265625 154.296875 218.574219 160.664062 218.253906 C 168.707031 217.839844 180.070312 220.617188 186.4375 229.699219 Z M 199.140625 223.929688 C 196.5 225.472656 194.085938 227.410156 191.960938 229.699219 L 189.453125 229.699219 C 195.476562 221.183594 206.792969 217.792969 215.648438 218.253906 C 222.015625 218.589844 230.015625 220.265625 237.742188 221.898438 C 241.980469 222.800781 245.980469 223.640625 249.496094 224.207031 C 262.066406 226.25 271.570312 225.824219 279.417969 222.90625 C 279.660156 222.816406 279.855469 222.617188 279.945312 222.359375 C 280.035156 222.113281 280.007812 221.824219 279.886719 221.59375 L 262.140625 190.214844 L 264.8125 189.96875 L 284.53125 223.855469 C 277.816406 225.410156 271.101562 226.28125 264.523438 226.433594 C 252.121094 226.738281 241.875 224.601562 232.835938 222.722656 C 220.3125 220.128906 209.523438 217.871094 199.140625 223.929688 Z M 199.140625 223.929688 " fill-opacity="1" fill-rule="nonzero"/></g><g fill="#285430" fill-opacity="1"><g transform="translate(104.219077, 285.788093)"><g><path d="M 9.390625 0.453125 C 6.648438 0.453125 3.867188 0.0234375 1.046875 -0.828125 C 1.171875 -3.296875 1.367188 -5.585938 1.640625 -7.703125 L 4.53125 -8.265625 L 6.390625 -5.09375 C 7.890625 -4.5625 9.210938 -4.296875 10.359375 -4.296875 C 10.753906 -4.296875 11.601562 -4.410156 12.90625 -4.640625 C 12.957031 -5.140625 12.984375 -5.472656 12.984375 -5.640625 C 12.984375 -6.242188 12.878906 -6.703125 12.671875 -7.015625 C 12.472656 -7.328125 12.035156 -7.675781 11.359375 -8.0625 C 10.691406 -8.445312 9.488281 -9.023438 7.75 -9.796875 C 5.601562 -10.847656 4.054688 -11.976562 3.109375 -13.1875 C 2.160156 -14.394531 1.6875 -15.820312 1.6875 -17.46875 C 1.6875 -20.039062 2.554688 -22.046875 4.296875 -23.484375 C 6.046875 -24.929688 8.441406 -25.65625 11.484375 -25.65625 C 12.953125 -25.65625 14.414062 -25.507812 15.875 -25.21875 C 17.332031 -24.9375 18.613281 -24.546875 19.71875 -24.046875 C 19.664062 -22.648438 19.550781 -20.921875 19.375 -18.859375 L 19.265625 -17.25 L 16.53125 -16.828125 L 13.6875 -20.46875 C 12.789062 -20.738281 11.671875 -20.875 10.328125 -20.875 C 9.472656 -20.875 8.835938 -20.796875 8.421875 -20.640625 C 8.296875 -20.148438 8.234375 -19.765625 8.234375 -19.484375 C 8.234375 -18.941406 8.367188 -18.460938 8.640625 -18.046875 C 8.910156 -17.640625 9.394531 -17.21875 10.09375 -16.78125 C 10.789062 -16.34375 11.828125 -15.800781 13.203125 -15.15625 C 15.203125 -14.207031 16.710938 -13.367188 17.734375 -12.640625 C 18.753906 -11.921875 19.46875 -11.164062 19.875 -10.375 C 20.289062 -9.59375 20.5 -8.640625 20.5 -7.515625 C 20.5 -5.046875 19.515625 -3.097656 17.546875 -1.671875 C 15.578125 -0.253906 12.859375 0.453125 9.390625 0.453125 Z M 9.390625 0.453125 "/></g></g></g><g fill="#285430" fill-opacity="1"><g transform="translate(125.582093, 285.788093)"><g><path d="M 1.015625 -3.921875 L 3.359375 -4.5625 L 3.359375 -18.890625 C 3.359375 -19.535156 3.316406 -19.960938 3.234375 -20.171875 C 3.148438 -20.390625 2.90625 -20.585938 2.5 -20.765625 L 0.9375 -21.65625 L 1.046875 -25.21875 L 12.71875 -25.21875 L 12.90625 -21.390625 L 10.140625 -20.640625 L 10.140625 -15.1875 L 18.671875 -15.40625 L 18.671875 -18.890625 C 18.671875 -19.535156 18.617188 -19.960938 18.515625 -20.171875 C 18.410156 -20.390625 18.148438 -20.585938 17.734375 -20.765625 L 15.890625 -21.8125 L 16.078125 -25.21875 L 27.5625 -25.21875 L 27.71875 -21.28125 L 25.4375 -20.640625 L 25.4375 -6.0625 C 25.4375 -5.457031 25.476562 -5.066406 25.5625 -4.890625 C 25.65625 -4.722656 25.875 -4.550781 26.21875 -4.375 L 27.75 -3.484375 L 27.609375 0 L 16.234375 0 L 16.046875 -3.859375 L 18.671875 -4.5625 L 18.671875 -10.140625 L 10.140625 -10.515625 L 10.140625 -6.0625 C 10.140625 -5.457031 10.179688 -5.066406 10.265625 -4.890625 C 10.359375 -4.722656 10.585938 -4.550781 10.953125 -4.375 L 12.9375 -3.21875 L 12.796875 0 L 1.203125 0 Z M 1.015625 -3.921875 "/></g></g></g><g fill="#285430" fill-opacity="1"><g transform="translate(154.203315, 285.788093)"><g><path d="M 1.203125 -3.8125 L 3.921875 -4.5625 L 3.921875 -18.890625 C 3.921875 -19.535156 3.867188 -19.960938 3.765625 -20.171875 C 3.671875 -20.390625 3.414062 -20.585938 3 -20.765625 L 1.046875 -21.875 L 1.234375 -25.21875 L 13.234375 -25.21875 L 13.390625 -21.390625 L 10.703125 -20.640625 L 10.703125 -6.0625 C 10.703125 -5.457031 10.742188 -5.066406 10.828125 -4.890625 C 10.910156 -4.722656 11.140625 -4.550781 11.515625 -4.375 L 13.421875 -3.21875 L 13.3125 0 L 1.390625 0 Z M 1.203125 -3.8125 "/></g></g></g><g fill="#285430" fill-opacity="1"><g transform="translate(168.719702, 285.788093)"><g><path d="M 1.015625 -3.921875 L 3.359375 -4.5625 L 3.359375 -18.890625 C 3.359375 -19.535156 3.316406 -19.960938 3.234375 -20.171875 C 3.148438 -20.390625 2.90625 -20.585938 2.5 -20.765625 L 0.9375 -21.65625 L 1.046875 -25.21875 L 12.71875 -25.21875 L 12.90625 -21.390625 L 10.140625 -20.640625 L 10.140625 -13.609375 L 16.6875 -20.6875 C 16.78125 -20.78125 16.828125 -20.914062 16.828125 -21.09375 C 16.828125 -21.21875 16.789062 -21.332031 16.71875 -21.4375 L 15.640625 -22.75 L 16.046875 -25.21875 L 24.71875 -25.21875 L 25.171875 -22.671875 L 16.609375 -13.5 L 25.765625 -1.6875 L 25.765625 0 L 18.625 0 L 10.140625 -11.265625 L 10.140625 -6.0625 C 10.140625 -5.507812 10.179688 -5.132812 10.265625 -4.9375 C 10.359375 -4.738281 10.585938 -4.539062 10.953125 -4.34375 L 12.9375 -3.21875 L 12.796875 0 L 1.203125 0 Z M 1.015625 -3.921875 "/></g></g></g><g fill="#285430" fill-opacity="1"><g transform="translate(195.021284, 285.788093)"><g><path d="M 9.390625 0.453125 C 6.648438 0.453125 3.867188 0.0234375 1.046875 -0.828125 C 1.171875 -3.296875 1.367188 -5.585938 1.640625 -7.703125 L 4.53125 -8.265625 L 6.390625 -5.09375 C 7.890625 -4.5625 9.210938 -4.296875 10.359375 -4.296875 C 10.753906 -4.296875 11.601562 -4.410156 12.90625 -4.640625 C 12.957031 -5.140625 12.984375 -5.472656 12.984375 -5.640625 C 12.984375 -6.242188 12.878906 -6.703125 12.671875 -7.015625 C 12.472656 -7.328125 12.035156 -7.675781 11.359375 -8.0625 C 10.691406 -8.445312 9.488281 -9.023438 7.75 -9.796875 C 5.601562 -10.847656 4.054688 -11.976562 3.109375 -13.1875 C 2.160156 -14.394531 1.6875 -15.820312 1.6875 -17.46875 C 1.6875 -20.039062 2.554688 -22.046875 4.296875 -23.484375 C 6.046875 -24.929688 8.441406 -25.65625 11.484375 -25.65625 C 12.953125 -25.65625 14.414062 -25.507812 15.875 -25.21875 C 17.332031 -24.9375 18.613281 -24.546875 19.71875 -24.046875 C 19.664062 -22.648438 19.550781 -20.921875 19.375 -18.859375 L 19.265625 -17.25 L 16.53125 -16.828125 L 13.6875 -20.46875 C 12.789062 -20.738281 11.671875 -20.875 10.328125 -20.875 C 9.472656 -20.875 8.835938 -20.796875 8.421875 -20.640625 C 8.296875 -20.148438 8.234375 -19.765625 8.234375 -19.484375 C 8.234375 -18.941406 8.367188 -18.460938 8.640625 -18.046875 C 8.910156 -17.640625 9.394531 -17.21875 10.09375 -16.78125 C 10.789062 -16.34375 11.828125 -15.800781 13.203125 -15.15625 C 15.203125 -14.207031 16.710938 -13.367188 17.734375 -12.640625 C 18.753906 -11.921875 19.46875 -11.164062 19.875 -10.375 C 20.289062 -9.59375 20.5 -8.640625 20.5 -7.515625 C 20.5 -5.046875 19.515625 -3.097656 17.546875 -1.671875 C 15.578125 -0.253906 12.859375 0.453125 9.390625 0.453125 Z M 9.390625 0.453125 "/></g></g></g><g fill="#285430" fill-opacity="1"><g transform="translate(216.384299, 285.788093)"><g><path d="M 1.015625 -3.921875 L 3.359375 -4.5625 L 3.359375 -18.890625 C 3.359375 -19.535156 3.316406 -19.960938 3.234375 -20.171875 C 3.148438 -20.390625 2.90625 -20.585938 2.5 -20.765625 L 0.9375 -21.65625 L 1.046875 -25.21875 L 12.71875 -25.21875 L 12.90625 -21.390625 L 10.140625 -20.640625 L 10.140625 -15.1875 L 18.671875 -15.40625 L 18.671875 -18.890625 C 18.671875 -19.535156 18.617188 -19.960938 18.515625 -20.171875 C 18.410156 -20.390625 18.148438 -20.585938 17.734375 -20.765625 L 15.890625 -21.8125 L 16.078125 -25.21875 L 27.5625 -25.21875 L 27.71875 -21.28125 L 25.4375 -20.640625 L 25.4375 -6.0625 C 25.4375 -5.457031 25.476562 -5.066406 25.5625 -4.890625 C 25.65625 -4.722656 25.875 -4.550781 26.21875 -4.375 L 27.75 -3.484375 L 27.609375 0 L 16.234375 0 L 16.046875 -3.859375 L 18.671875 -4.5625 L 18.671875 -10.140625 L 10.140625 -10.515625 L 10.140625 -6.0625 C 10.140625 -5.457031 10.179688 -5.066406 10.265625 -4.890625 C 10.359375 -4.722656 10.585938 -4.550781 10.953125 -4.375 L 12.9375 -3.21875 L 12.796875 0 L 1.203125 0 Z M 1.015625 -3.921875 "/></g></g></g><g fill="#285430" fill-opacity="1"><g transform="translate(245.005522, 285.788093)"><g><path d="M 0.59375 -3.328125 L 1.765625 -4.046875 L 10.515625 -25.25 L 16.875 -25.8125 L 24.34375 -5.609375 C 24.59375 -4.960938 24.769531 -4.539062 24.875 -4.34375 C 24.976562 -4.144531 25.164062 -3.867188 25.4375 -3.515625 L 26.109375 -2.65625 L 25.890625 0 L 15.375 0 L 15 -3.546875 L 17.65625 -4.234375 L 16.453125 -8 L 8.859375 -7.890625 L 8.046875 -5.53125 C 7.972656 -5.3125 7.9375 -5.125 7.9375 -4.96875 C 7.9375 -4.800781 7.960938 -4.671875 8.015625 -4.578125 C 8.078125 -4.492188 8.1875 -4.425781 8.34375 -4.375 L 10.921875 -3.296875 L 10.546875 0 L 0.75 0 Z M 12.828125 -19.40625 L 10.359375 -12.234375 L 15.1875 -12 Z M 12.828125 -19.40625 "/></g></g></g></svg>